<?xml version="1.0" encoding="UTF-8" standalone="no"?>
<svg width="70px" height="23px" viewBox="0 0 70 23" version="1.1" xmlns="http://www.w3.org/2000/svg" xmlns:xlink="http://www.w3.org/1999/xlink">
    <!-- Generator: sketchtool 46 (44423) - http://www.bohemiancoding.com/sketch -->
    <title>73494596-1B72-4056-AFD5-A99E3DECC170</title>
    <desc>Created with sketchtool.</desc>
    <defs>
        <path d="M4.78338893,2.17321262 C5.25126693,1.2468246 6.29683633,0.141924727 8.62061302,0.141924727 C10.9454306,0.141924727 11.9904796,1.2468246 12.458878,2.17373306 C12.9777594,3.20264829 12.9777594,4.35699022 12.9777594,5.28441913 C12.9777594,6.65162212 12.3251242,8.21190936 11.200968,9.5942052 C11.3586621,9.7440927 11.8098859,9.99806874 12.2886932,10.2489221 L11.505427,11.0327088 C10.9995566,10.7584355 10.6664733,10.5481767 10.4723482,10.3649808 L9.7572599,9.68892577 L10.378148,8.92543632 C11.3565803,7.72321366 11.918138,6.39608475 11.918138,5.28441913 C11.918138,4.42672954 11.918138,3.45506301 11.5121927,2.65097902 C11.0271401,1.68972134 10.0539122,1.20206652 8.62061302,1.20206652 C7.1873138,1.20206652 6.21512682,1.68972134 5.72955378,2.65097902 C5.32308802,3.45454257 5.32308802,4.42672954 5.32308802,5.28441913 C5.32308802,6.39608475 5.8846457,7.7237341 6.86359844,8.92491587 L7.48448659,9.68840533 L6.76939831,10.3644604 C6.4451625,10.6710012 5.74152396,11.0488426 4.47320508,11.6827418 C3.28451393,12.2776078 2.47574596,12.6960437 2.09061836,13.0822122 C1.25374648,13.9190841 1.20482487,15.5043526 1.20170221,15.682344 C1.20066133,15.7755032 1.23761276,15.868142 1.30370898,15.9347587 C1.36928477,16.0013754 1.46140313,16.0404086 1.55508281,16.0398881 L7.55734857,16.0398881 L7.55734857,17.1000299 L1.55508281,17.1000299 C1.17620052,17.1000299 0.813451953,16.9475402 0.548546615,16.6789918 C0.282600391,16.4083616 0.13635599,16.0435312 0.142080859,15.6651694 C0.147805729,15.3029413 0.231597005,13.4418381 1.34066042,12.3327747 C1.84184674,11.8315884 2.67871862,11.394937 3.99908177,10.7350156 C4.66472799,10.4024527 5.77275052,9.84818124 6.04129896,9.5942052 C4.91610182,8.21190936 4.26398711,6.65162212 4.26398711,5.28441913 C4.26398711,4.35699022 4.26398711,3.20264829 4.78338893,2.17321262 Z M14.5385671,8.93168163 C14.7462237,8.72454543 15.0168539,8.62097733 15.288525,8.62097733 C15.5596757,8.62097733 15.8308263,8.72454543 16.0379625,8.93168163 L16.7874,9.68111913 C17.201152,10.0943506 17.201152,10.7657217 16.7874,11.1799941 L12.236649,15.7297043 C12.0295128,15.93632 10.9568803,16.5696988 10.9568803,16.5696988 L8.61696992,17.1000299 L9.14730104,14.76064 C9.14730104,14.4889689 9.78067982,13.688528 9.98781602,13.4813918 L14.5385671,8.93168163 Z M9.96803919,14.3396018 L11.3414875,15.7125297 C11.5949431,15.5511924 11.8025997,15.4106729 11.8624507,15.3539446 L15.2880046,11.9294316 L13.7891296,10.4305566 L10.3625348,13.8561105 C10.2657324,13.9523924 10.1090792,14.1465176 9.96803919,14.3396018 Z M15.4404943,13.4574514 L16.2024224,12.6960437 C17.0195174,13.8092707 17.0944612,15.3398927 17.1001861,15.6646489 C17.1053905,16.0435312 16.9586257,16.408882 16.6937203,16.6789918 C16.4282945,16.9480607 16.065546,17.1000299 15.6866637,17.1000299 L11.7973953,17.1000299 L12.8575371,16.0404086 L15.6871841,16.0404086 C15.7819047,16.0404086 15.8714208,16.0024163 15.9390784,15.9347587 C16.0046542,15.868142 16.0416056,15.7755032 16.0400443,15.6818236 C16.0311967,15.1400427 15.8870341,14.16109 15.4404943,13.4574514 Z" id="path-1"></path>
        <linearGradient x1="50%" y1="0%" x2="50%" y2="100%" id="linearGradient-3">
            <stop stop-color="#FFFFFF" stop-opacity="0.5" offset="0%"></stop>
            <stop stop-color="#000000" stop-opacity="0.5" offset="100%"></stop>
        </linearGradient>
        <path d="M56.8307824,2.17321262 C57.29814,1.2468246 58.3437094,0.141924727 60.6690474,0.141924727 C62.9928241,0.141924727 64.0383935,1.2468246 64.5062715,2.17373306 C65.0251529,3.20264829 65.0251529,4.35699022 65.0251529,5.28441913 C65.0251529,6.65162212 64.3735586,8.21190936 63.247841,9.5942052 C63.4060556,9.7440927 63.8572794,9.99806874 64.3360867,10.2489221 L63.5533409,11.0327088 C63.0474706,10.7584355 62.7138668,10.5481767 62.5197417,10.3649808 L61.8046534,9.68892577 L62.4255415,8.92543632 C63.4039738,7.72321366 63.9655315,6.39608475 63.9655315,5.28441913 C63.9655315,4.42672954 63.9655315,3.45506301 63.5595862,2.65097902 C63.0745336,1.68972134 62.1013057,1.20206652 60.6690474,1.20206652 C59.2357482,1.20206652 58.2625203,1.68972134 57.7774677,2.65097902 C57.3715224,3.45454257 57.3715224,4.42672954 57.3715224,5.28441913 C57.3715224,6.39608475 57.9330801,7.7237341 58.9104715,8.92491587 L59.5313596,9.68840533 L58.8173122,10.3644604 C58.492556,10.6710012 57.7894379,11.0488426 56.5205986,11.6827418 C55.3319074,12.2776078 54.5236599,12.6960437 54.1374914,13.0822122 C53.30114,13.9190841 53.2522184,15.5043526 53.2496161,15.682344 C53.2480548,15.7755032 53.2850063,15.868142 53.3511025,15.9347587 C53.4171987,16.0013754 53.5087966,16.0404086 53.6024763,16.0398881 L59.6047421,16.0398881 L59.6047421,17.1000299 L53.6024763,17.1000299 C53.223594,17.1000299 52.8613659,16.9475402 52.5954197,16.6789918 C52.3299939,16.4083616 52.1837495,16.0435312 52.1894743,15.6651694 C52.1951992,15.3029413 52.2795109,13.4418381 53.3885743,12.3327747 C53.8892402,11.8315884 54.7266326,11.394937 56.0464753,10.7350156 C56.7121215,10.4024527 57.820144,9.84818124 58.0886924,9.5942052 C56.9634953,8.21190936 56.3113806,6.65162212 56.3113806,5.28441913 C56.3113806,4.35699022 56.3113806,3.20264829 56.8307824,2.17321262 Z M66.586481,8.93168163 C66.7936172,8.72454543 67.0642474,8.62097733 67.335398,8.62097733 C67.6070691,8.62097733 67.8776993,8.72454543 68.085356,8.93168163 L68.8347935,9.68111913 C69.2490659,10.0943506 69.2490659,10.7657217 68.8347935,11.1799941 L64.2840424,15.7297043 C64.0769063,15.93632 63.0042738,16.5696988 63.0042738,16.5696988 L60.6643634,17.1000299 L61.1946945,14.76064 C61.195215,14.4889689 61.8285938,13.688528 62.0352095,13.4813918 L66.586481,8.93168163 Z M62.0159531,14.3396018 L63.388881,15.7125297 C63.6423366,15.5511924 63.8499932,15.4106729 63.9098441,15.3539446 L67.335398,11.9294316 L65.8370435,10.4305566 L62.4099283,13.8561105 C62.3131259,13.9523924 62.1569931,14.1465176 62.0159531,14.3396018 Z M67.4884082,13.4574514 L68.2498159,12.6960437 C69.0669109,13.8092707 69.1423751,15.3398927 69.1475796,15.6646489 C69.1533044,16.0435312 69.0065396,16.408882 68.7411138,16.6789918 C68.475688,16.9480607 68.1134599,17.1000299 67.7340572,17.1000299 L63.8447888,17.1000299 L64.905451,16.0404086 L67.7340572,16.0404086 C67.8298186,16.0404086 67.9193348,16.0024163 67.9859514,15.9347587 C68.0520477,15.868142 68.0889991,15.7755032 68.0874378,15.6818236 C68.0791107,15.1400427 67.934948,14.16109 67.4884082,13.4574514 Z" id="path-4"></path>
    </defs>
    <g id="Page-1" stroke="none" stroke-width="1" fill="none" fill-rule="evenodd">
        <g id="LP1" transform="translate(-326.000000, -2126.000000)">
            <g id="5" transform="translate(0.000000, 1982.000000)">
                <g id="2" transform="translate(281.000000, 106.000000)">
                    <g transform="translate(30.000000, 0.000000)">
                        <g transform="translate(15.000000, 38.000000)">
                            <mask id="mask-2" fill="white">
                                <use xlink:href="#path-1"></use>
                            </mask>
                            <use id="Clip-4" fill="#FFFFFF" xlink:href="#path-1"></use>
                            <g id="Clip-7">
                                <use fill="#D8D8D8" xlink:href="#path-4"></use>
                                <use fill="url(#linearGradient-3)" xlink:href="#path-4"></use>
                                <use fill="url(#linearGradient-3)" xlink:href="#path-4"></use>
                                <use fill="#FFFFFF" xlink:href="#path-4"></use>
                            </g>
                            <g id="Group-23" transform="translate(19.776823, 0.055011)" fill="#FFFFFF">
                                <path d="M13.5875621,20.4929521 L13.5875621,19.217347 L9.17004439,19.217347 C9.07792603,19.6701322 8.92023189,20.0984565 8.70580949,20.4929521 L13.5875621,20.4929521 Z" id="Fill-9"></path>
                                <path d="M18.1411756,18.8233719 L16.48877,17.1709663 C16.6584343,16.9388488 16.847355,16.7056905 16.9628933,16.5896318 L21.0868813,12.4672051 L22.8907357,14.2705391 L18.7688295,18.3919249 C18.6964879,18.4606233 18.4466754,18.6292467 18.1411756,18.8233719 L18.1411756,18.8233719 Z M24.6945902,13.3691323 C25.1931743,12.8705482 25.1931743,12.0628211 24.6945902,11.5652779 L23.7926629,10.6638711 C23.5433709,10.414579 23.2170533,10.2901932 22.8907357,10.2901932 C22.5644182,10.2901932 22.2381006,10.414579 21.989329,10.6638711 L16.5127103,16.1389284 C16.2634183,16.3877 15.5014902,17.3510395 15.5009697,17.6778775 L14.8634274,20.4929521 L17.678502,19.8548893 C17.678502,19.8548893 18.9691999,19.0934816 19.2179715,18.8436691 L24.6945902,13.3691323 Z" id="Fill-11"></path>
                                <path d="M23.0747122,16.1093152 C23.6112887,16.9571164 23.7851165,18.1348782 23.7955254,18.7864725 C23.7976071,18.8994086 23.7528491,19.0102629 23.6737418,19.0909315 C23.5925527,19.172641 23.4848211,19.2179195 23.3703237,19.2179195 L19.9655875,19.2179195 L18.6899824,20.4930041 L23.3703237,20.4930041 C23.8262315,20.4930041 24.2623625,20.3098083 24.5819143,19.9855725 C24.9014661,19.6608162 25.0778962,19.2210421 25.07061,18.7656548 C25.0643647,18.3753227 24.9738077,16.5324351 23.9906914,15.193336 L23.0747122,16.1093152 Z" id="Fill-13"></path>
                                <path d="M9.87659741,13.974199 C11.4035763,13.21123 12.2498162,12.756363 12.6401482,12.3878896 L13.4999195,11.5744377 L12.7525638,10.6558563 C11.5758429,9.20954599 10.9003082,7.61230732 10.9003082,6.27476956 C10.9003082,5.24273167 10.9003082,4.0732969 11.3884835,3.10579391 C11.9729406,1.94937021 13.1428958,1.36231083 14.8681634,1.36231083 C16.5923901,1.36231083 17.7628658,1.94937021 18.3468025,3.10579391 C18.8354982,4.07381734 18.8354982,5.24325211 18.8354982,6.27476956 C18.8354982,7.61230732 18.1599636,9.20954599 16.9822017,10.6563767 L16.234846,11.5749581 L17.0956582,12.3884101 C17.3288165,12.6085573 17.7300779,12.8614925 18.3389958,13.1914532 L19.2809971,12.2494518 C18.7053875,11.9470746 18.1620453,11.6415748 17.9720837,11.4615016 C19.3252348,9.79816669 20.1105828,7.91988896 20.1105828,6.27529 C20.1105828,5.15946083 20.1105828,3.77039924 19.4860516,2.5317456 C18.9229326,1.41643688 17.6650225,0.0867057552 14.8681634,0.0867057552 C12.0707839,0.0867057552 10.8128738,1.41643688 10.2497548,2.53122516 C9.62470314,3.7698788 9.62470314,5.15841995 9.62470314,6.27476956 C9.62470314,7.91988896 10.4095307,9.79816669 11.7632022,11.4609811 C11.4400073,11.7670015 10.1071535,12.4336886 9.3061922,12.8333886 C8.19660835,13.3881805 7.3758702,13.8118209 6.77319754,14.2219297 C7.18330639,14.4347908 7.55802514,14.705421 7.88434272,15.0260137 C8.39385613,14.723116 9.05742059,14.3843078 9.87659741,13.974199" id="Fill-15"></path>
                                <path d="M8.22122529,18.3024087 C8.22122529,18.6188379 8.17542633,18.9248582 8.09735992,19.217347 L9.16999234,19.217347 C9.22984326,18.9212151 9.2621107,18.6157152 9.2621107,18.3024087 C9.2621107,17.0205583 8.73334091,15.8615324 7.88449885,15.0262219 C7.51134143,15.2484509 7.21989352,15.4514236 7.02160484,15.6465896 C7.75542906,16.2987043 8.22122529,17.2464305 8.22122529,18.3024087" id="Fill-17"></path>
                                <path d="M7.46065031,20.4929521 L8.70554927,20.4929521 C8.91997167,20.0984565 9.07818625,19.6701322 9.17030461,19.217347 L8.09767219,19.217347 C7.97172505,19.6878272 7.75313911,20.1197947 7.46065031,20.4929521" id="Fill-19"></path>
                                <path d="M5.9087422,14.9749062 C6.32197371,15.1299982 6.69773335,15.3584725 7.02196915,15.6467978 C7.22025783,15.4516317 7.51170574,15.2481386 7.88434272,15.0264301 C7.55802514,14.7053169 7.18330639,14.4346867 6.77319754,14.2218256 C6.51297618,14.3992966 6.28918582,14.5741653 6.10755132,14.7563203 C6.03729155,14.8265801 5.97223621,14.8999625 5.9087422,14.9749062" id="Fill-21"></path>
                                <path d="M6.51963785,17.5725399 L4.72202874,19.370149 L4.38426142,19.7079163 C4.33794202,19.7537153 4.28173421,19.7771352 4.21563798,19.7771352 C4.14954176,19.7771352 4.0928135,19.7537153 4.04701454,19.7079163 L3.70924723,19.370149 L2.81044267,18.4713444 C2.76360283,18.425025 2.74070335,18.3682968 2.74070335,18.3022005 C2.74070335,18.2361043 2.76360283,18.1798965 2.81044267,18.1335771 L3.14768954,17.7958098 C3.19400895,17.7494904 3.2507372,17.7265909 3.31683342,17.7265909 C3.38292965,17.7265909 3.43913746,17.7494904 3.48545686,17.7958098 L4.21563798,18.5285931 L5.84462366,16.8970052 C5.89094306,16.8506858 5.94663043,16.8272659 6.0132471,16.8272659 C6.07934332,16.8272659 6.13555113,16.8506858 6.18239098,16.8970052 L6.51963785,17.2347726 C6.56595725,17.2805715 6.58937717,17.3372998 6.58937717,17.4039164 C6.58937717,17.4700127 6.56595725,17.5257 6.51963785,17.5725399 M4.66530048,13.7051301 C2.13022405,13.7051301 0.0682300391,15.7676446 0.0682300391,18.3022005 C0.0682300391,20.8367565 2.13022405,22.899271 4.66530048,22.899271 C7.19985647,22.899271 9.26237092,20.8367565 9.26237092,18.3022005 C9.26237092,15.7676446 7.19985647,13.7051301 4.66530048,13.7051301" id="Fill-1"></path>
                            </g>
                        </g>
                    </g>
                </g>
            </g>
        </g>
    </g>
</svg>