<?xml version="1.0" encoding="UTF-8" standalone="no"?>
<svg width="35px" height="45px" viewBox="0 0 35 45" version="1.1" xmlns="http://www.w3.org/2000/svg" xmlns:xlink="http://www.w3.org/1999/xlink">
    <!-- Generator: sketchtool 46 (44423) - http://www.bohemiancoding.com/sketch -->
    <title>E7295069-2163-4DDD-8458-E1ED2426EF20</title>
    <desc>Created with sketchtool.</desc>
    <defs>
        <path d="M6.8445,0.9036 L24.3036,0.9036 C25.8336,0.9036 27.0036,2.0727 27.0036,3.6036 L27.0036,29.7036 L26.1036,29.7036 C22.5936,29.7036 19.8045,32.4936 19.8045,36.0036 L19.8045,36.9036 L2.7036,36.9036 C1.1736,36.9036 0.0036,35.7336 0.0036,34.2036 L0.0036,7.7436 L6.8445,0.9036 Z M1.8036,34.2036 C1.8036,34.7427 2.1636,35.1036 2.7036,35.1036 L18.0936,35.1036 C18.5436,31.3227 21.5136,28.3536 25.2036,27.9936 L25.2036,3.6036 C25.2036,3.0636 24.8427,2.7036 24.3036,2.7036 L7.5636,2.7036 L1.8036,8.4636 L1.8036,34.2036 Z" id="path-1"></path>
        <path d="M6.3036,13.5036 C5.7636,13.5036 5.4036,13.8636 5.4036,14.4036 C5.4036,14.9436 5.7636,15.3036 6.3036,15.3036 L20.7036,15.3036 C21.2436,15.3036 21.6036,14.9436 21.6036,14.4036 C21.6036,13.8636 21.2436,13.5036 20.7036,13.5036 L6.3036,13.5036 Z" id="path-3"></path>
        <path d="M12.6036,7.2036 C12.0636,7.2036 11.7045,7.5636 11.7045,8.1036 C11.7045,8.6436 12.0636,9.0036 12.6036,9.0036 L19.8045,9.0036 C20.3436,9.0036 20.7036,8.6436 20.7036,8.1036 C20.7036,7.5636 20.3436,7.2036 19.8045,7.2036 L12.6036,7.2036 Z" id="path-5"></path>
    </defs>
    <g id="Page-1" stroke="none" stroke-width="1" fill="none" fill-rule="evenodd">
        <g id="LP1" transform="translate(-867.000000, -2116.000000)">
            <g id="5" transform="translate(0.000000, 1982.000000)">
                <g id="4" transform="translate(804.000000, 106.000000)">
                    <g id="Group-2" transform="translate(30.000000, 0.000000)">
                        <g id="4" transform="translate(33.000000, 28.000000)">
                            <path d="M7.20369,9.0036 L0.90369,9.0036 C0.54369,9.0036 0.18369,8.8236 0.09369,8.4636 C-0.08631,8.1036 0.00369,7.7436 0.27369,7.4736 L6.57369,1.1736 C6.84369,0.9036 7.20369,0.8136 7.56369,0.9936 C7.92369,1.0836 8.10369,1.4436 8.10369,1.8036 L8.10369,8.1036 C8.10369,8.6436 7.74369,9.0036 7.20369,9.0036 L7.20369,9.0036 Z M3.06369,7.2036 L6.30369,7.2036 L6.30369,3.9636 L3.06369,7.2036 Z" id="Fill-1" fill="#FFFFFF"></path>
                            <path d="M26.10369,44.1036 C21.60369,44.1036 18.00369,40.5036 18.00369,36.0036 C18.00369,31.5036 21.60369,27.9036 26.10369,27.9036 C30.60369,27.9036 34.20369,31.5036 34.20369,36.0036 C34.20369,40.5036 30.60369,44.1036 26.10369,44.1036 M26.10369,29.7036 C22.59369,29.7036 19.80369,32.4936 19.80369,36.0036 C19.80369,39.5136 22.59369,42.3036 26.10369,42.3036 C29.61369,42.3036 32.40369,39.5136 32.40369,36.0036 C32.40369,32.4936 29.61369,29.7036 26.10369,29.7036" id="Fill-6" fill="#FFFFFF"></path>
                            <mask id="mask-2" fill="white">
                                <use xlink:href="#path-1"></use>
                            </mask>
                            <use id="Clip-12" fill="#FFFFFF" xlink:href="#path-1"></use>
                            <path d="M25.74333,39.6036 C25.56423,39.6036 25.38423,39.5136 25.20333,39.4236 L22.86423,37.8036 C22.41423,37.5336 22.32333,36.9936 22.59333,36.5436 C22.86423,36.0936 23.40333,36.0036 23.85333,36.2736 L25.38423,37.2636 L27.99333,32.6736 C28.26423,32.2236 28.80333,32.1336 29.25333,32.3136 C29.70333,32.5836 29.79333,33.1236 29.61423,33.5736 L26.55333,38.9736 C26.46423,39.1536 26.19333,39.3336 26.01423,39.4236 C25.83423,39.6036 25.74333,39.6036 25.74333,39.6036" id="Fill-14" fill="#FFFFFF"></path>
                            <path d="M15.30369,27.9036 L6.30369,27.9036 C5.76369,27.9036 5.40369,27.5436 5.40369,27.0036 C5.40369,26.4636 5.76369,26.1036 6.30369,26.1036 L15.30369,26.1036 C15.84369,26.1036 16.20369,26.4636 16.20369,27.0036 C16.20369,27.5436 15.84369,27.9036 15.30369,27.9036" id="Fill-27" fill="#FFFFFF"></path>
                            <path d="M20.70369,21.6036 L6.30369,21.6036 C5.76369,21.6036 5.40369,21.2436 5.40369,20.7036 C5.40369,20.1636 5.76369,19.8036 6.30369,19.8036 L20.70369,19.8036 C21.24369,19.8036 21.60369,20.1636 21.60369,20.7036 C21.60369,21.2436 21.24369,21.6036 20.70369,21.6036" id="Fill-22" fill="#FFFFFF"></path>
                            <mask id="mask-4" fill="white">
                                <use xlink:href="#path-3"></use>
                            </mask>
                            <use id="Clip-20" fill="#FFFFFF" xlink:href="#path-3"></use>
                            <mask id="mask-6" fill="white">
                                <use xlink:href="#path-5"></use>
                            </mask>
                            <use id="Clip-33" fill="#FFFFFF" xlink:href="#path-5"></use>
                        </g>
                    </g>
                </g>
            </g>
        </g>
    </g>
</svg>