<?xml version="1.0" encoding="UTF-8" standalone="no"?>
<svg width="14px" height="12px" viewBox="0 0 14 12" version="1.1" xmlns="http://www.w3.org/2000/svg" xmlns:xlink="http://www.w3.org/1999/xlink">
    <!-- Generator: sketchtool 46 (44423) - http://www.bohemiancoding.com/sketch -->
    <title>38B4ACC0-15DE-4887-BC60-E6C3988CD0F8</title>
    <desc>Created with sketchtool.</desc>
    <defs></defs>
    <g id="Page-1" stroke="none" stroke-width="1" fill="none" fill-rule="evenodd" opacity="0.5">
        <g id="LP3" transform="translate(-23.000000, -1699.000000)" fill-rule="nonzero" fill="#FFFFFF">
            <g id="4" transform="translate(0.000000, 1567.000000)">
                <g id="Group-9" transform="translate(23.000000, 126.000000)">
                    <g id="1">
                        <path d="M13.796812,16.2194284 L8.02212349,6.57039753 C7.81097212,6.21744951 7.42076437,6 6.9982203,6 C6.57567622,6 6.18546848,6.21744951 5.97407578,6.57039753 L0.158363534,16.2890402 C-0.0527878446,16.6419882 -0.0527878446,17.0766544 0.158363534,17.4298353 C0.369514912,17.7827833 0.759963975,18 1.18250805,18 L12.8141739,18 C12.8156218,18 12.8170696,18 12.8175523,18 C13.4707943,18 14,17.489436 14,16.8592049 C14,16.6224318 13.9249508,16.4017228 13.796812,16.2194284 Z M6.38744985,9.49944706 L7.61212785,9.49944706 C7.70551708,9.49944706 7.78129026,9.57231826 7.78129026,9.66241779 L7.44344806,14.1441127 C7.44344806,14.2342122 7.36791619,14.3073162 7.27452696,14.3073162 L6.72553337,14.3073162 C6.63214413,14.3073162 6.55661227,14.2342122 6.55661227,14.1441127 L6.21877006,9.66241779 C6.21877006,9.57255107 6.29406061,9.49944706 6.38744985,9.49944706 Z M6.99990951,16.4564344 C6.54527042,16.4564344 6.17629847,16.1009254 6.17629847,15.6620686 C6.17629847,15.2232117 6.54502911,14.8677027 6.99990951,14.8677027 C7.4547899,14.8677027 7.82327922,15.2232117 7.82327922,15.6620686 C7.82327922,16.1009254 7.4547899,16.4564344 6.99990951,16.4564344 Z" id="Shape"></path>
                    </g>
                </g>
            </g>
        </g>
    </g>
</svg>