<?xml version="1.0" encoding="UTF-8" standalone="no"?>
<svg width="198px" height="69px" viewBox="0 0 198 69" version="1.1" xmlns="http://www.w3.org/2000/svg" xmlns:xlink="http://www.w3.org/1999/xlink">
    <!-- Generator: Sketch 48 (47235) - http://www.bohemiancoding.com/sketch -->
    <title>Combined Shape</title>
    <desc>Created with Sketch.</desc>
    <defs></defs>
    <g id="eb-admin-state-1" stroke="none" stroke-width="1" fill="none" fill-rule="evenodd" transform="translate(-674.000000, -638.000000)">
        <g id="status" transform="translate(140.000000, 565.000000)" fill="#FFFFFF">
            <path d="M618,73 L618,93 L732,93 L732,142 L598.992025,142 C601.207498,142 603,140.205569 603,137.992025 L603,77.0079746 C603,74.7925015 601.205569,73 598.992025,73 L618,73 Z M538.007975,73 C535.792502,73 534,74.7944314 534,77.0079746 L534,73 L538.007975,73 Z M538.007975,142 L534,142 L534,137.992025 C534,140.207498 535.794431,142 538.007975,142 Z M618,106 L618,120 L712,120 L712,106 L618,106 Z M618,127 L618,141 L682,141 L682,127 L618,127 Z" id="Combined-Shape"></path>
        </g>
    </g>
</svg>