<svg width="29" height="34" viewBox="0 0 29 34" xmlns="http://www.w3.org/2000/svg"><title>Group</title><desc>Created with Sketch.</desc><g fill="none"><path d="M21.829 33.593c0 .201-3.451.364-7.707.364-4.257 0-7.707-.163-7.707-.364 0-.201 3.451-.364 7.707-.364 4.257 0 7.707.163 7.707.364" fill="#CED9D8"/><path d="M21.549 25.329l.629.527c.653.547 1.03 1.354 1.03 2.204v.443l-.488-.026c-.938-.05-1.793-.549-2.293-1.341l-.248-.391.435-1.594.935.177" fill="#3875AD"/><path d="M7.375 24.328l-.795-.036c-1.132-.052-2.12.758-2.287 1.875.843.684 2.008.816 2.983.338l.521-.255-.422-1.921" fill="#3875AD"/><path d="M14.749 27.148c-2.831 0-5.463-.842-7.66-2.288-.329.534-.51 1.115-.51 1.724 0 2.591 3.279 4.691 7.323 4.691 4.044 0 7.323-2.1 7.323-4.691 0-.325-.052-.642-.15-.948-1.898.967-4.048 1.513-6.326 1.513" fill="#3875AD"/><path fill="#121A25" d="M15.544.826l4.81-.826 3.737 3.862-5.505.152-2.515-2.002-.527-1.186"/><path d="M21.618 4.487l-4.984-1.611.502-1.541.009-.001c1.852-.242 3.838.411 4.865 1.95l-.392 1.203" fill="#141E30"/><path d="M21.446 5.019l-4.984-1.611.502-1.541.009-.001c1.852-.242 3.796.216 4.952 1.682l-.479 1.471" fill="#1A2540"/><path d="M16.563 2.871l-1.173-1.718c.757.164 1.754.143 2.327 1.718h-1.154" fill="#378DC0"/><path d="M28.365 16.381l-1.329-1.654.003-.235c0-6.791-5.528-12.297-12.346-12.297-5.74 0-10.565 3.902-11.948 9.188l-1.58 1.043c-.818.545-1.262 1.501-1.148 2.475l.065.551.547-.555-.061.461c-.074.558.072 1.124.408 1.577l.229-.455c1.447 6.116 6.961 10.668 13.543 10.668 5.251 0 9.822-2.897 12.191-7.174l.22.757c.459-.329.772-.822.873-1.377l.084-.457.351.695.231-.505c.407-.893.279-1.937-.333-2.706" fill="#378DC0"/><path d="M10.236 19.65c.827.26 1.275 1.087 1.574 1.898.062.168.603 1.397 1.683 1.522h.002c1.078.143 1.906-.915 2.007-1.063.489-.713 1.143-1.403 2.009-1.453l-7.274-.904" fill="#3875AD"/><path d="M13.779 20.856l.435-3.41c-1.127-.395-1.902.431-2.369 1.091-.195.276-.408.436-.627.503-.224.068-.466.024-.668-.094-.08-.047-.187-.101-.294-.13-.188-.051-.39-.01-.509.136-.137.169-.09.428.091.549l.067.034.332.114c.789.248 1.418.847 1.702 1.621.059.161.576 1.334 1.607 1.453l.233-1.866" fill="#EBC77C"/><path d="M13.779 20.856l.421-3.412c1.19-.107 1.737.884 2.027 1.638.121.315.288.523.484.642.2.121.446.137.67.072.09-.026.207-.052.317-.054.195-.003.381.086.46.256.091.198-.018.437-.224.51l-.073.017-.35.029c-.826.047-1.583.474-2.05 1.154-.097.141-.888 1.152-1.917 1.014l.235-1.866" fill="#D39549"/><path d="M13.605 22.25c1.334.001 1.75-1.538 3.488-2.002l-.684-.02c-.917-.026-1.824.19-2.629.627-.673-.621-1.499-1.053-2.394-1.252l-.668-.149c1.57.875 1.593 2.468 2.887 2.794h.002" fill="#2F271E"/><path d="M15.291 19.272l-.003-.006c-.037-.096-.051-.375-.012-.527.149.078.315.231.38.385l.009.125c-.027.105-.134.169-.24.142-.06-.015-.106-.057-.13-.109l-.005-.01" fill="#5B4933"/><path d="M15.3 31.006c-.247.994-.365 1.574-.439 2.436-.005.059.007.119.046.164l.145.07c.781.121 1.522.173 2.47.104l-.138-.266h1.116l-.092-.133c-.5-.722-1.389-1.071-2.249-.88l.001-.005c.116-.541.109-1.1-.021-1.638l-.84.148" fill="#DFB146"/><path d="M16.618 33.09c.433-.054 1.15.068 1.399.425h-.632c-.174-.254-.458-.411-.766-.425" fill="#D19748"/><path d="M12.054 31.029l-.296 2.424c-.001.06-.02.117-.064.158l-.152.054c-.79.037-1.424.064-2.359-.106l.111-.189c-.237.019-.702.008-.928-.066.32-.664.542-1.218 2.231-.83.094.021.181-.038.193-.133.038-.303.078-.69.486-1.371l.777.059" fill="#DFB146"/><path d="M10.049 32.915c-.584-.089-.966.127-1.253.455h.498c.171-.275.447-.475.755-.455" fill="#D19748"/><path d="M15.23 31.29c.16 0 .816-.081.97-.123l.033.291c-.157.016-.872-.038-1.025-.074l.023-.094" fill="#D19748"/><path d="M11.035 31.427s.62.297.943.224l-.026.215c-.506.001-.965-.326-.965-.326l.049-.113" fill="#D19748"/><path d="M16.242 31.653c-.16 0-.908-.108-1.063-.15l-.066.292c.157.016.975 0 1.129-.036v-.105" fill="#D19748"/><path d="M15.076 31.967s.601.061 1.157.022l-.024.233c-.454.068-.875.117-1.204.113l.072-.368" fill="#D19748"/><path d="M10.934 31.679s.444.38.999.341l-.04.329c-.534-.014-.781-.089-1.072-.228.014-.136.088-.371.113-.442" fill="#D19748"/><path d="M11.128 31.235l.073-.134.082.025c.195.058.393.102.594.133l.146.022-.02.165-.051-.007c-.281-.041-.556-.109-.824-.203" fill="#D19748"/><path d="M13.683 27.553c-2.296 0-4.158 1.056-4.158 2.358 0 .162.029.319.083.472 1.206.56 2.689.891 4.293.891 1.372 0 2.655-.242 3.753-.662.121-.221.187-.456.187-.7 0-1.302-1.862-2.358-4.158-2.358" fill="#55C1E1"/><path d="M24.305 9.415l-.434.511c-.737-1.198-2.375-1.71-3.669-1.964l.105-1.587c2.008.448 3.317 1.566 3.998 3.039" fill="#345B99"/><path d="M14.143 12.475c0 2.783-2.193 5.04-4.898 5.04-2.705 0-4.898-2.256-4.898-5.04 0-2.783 2.193-5.04 4.898-5.04 2.705 0 4.898 2.256 4.898 5.04" fill="#3466A2"/><path d="M13.689 12.874c0 2.29-1.864 4.147-4.164 4.147s-4.164-1.857-4.164-4.147 1.864-4.147 4.164-4.147 4.164 1.857 4.164 4.147" fill="#274E8F"/><path d="M13.625 12.42c0 2.29-1.864 4.147-4.164 4.147s-4.164-1.857-4.164-4.147 1.864-4.147 4.164-4.147 4.164 1.857 4.164 4.147" fill="#FFFFFE"/><path d="M12.159 12.914c0 1.484-1.208 2.687-2.698 2.687s-2.698-1.203-2.698-2.687c0-1.484 1.208-2.687 2.698-2.687s2.698 1.203 2.698 2.687" fill="#4B8655"/><path d="M10.717 13.189c0 .761-.619 1.377-1.383 1.377s-1.383-.617-1.383-1.377c0-.761.619-1.377 1.383-1.377s1.383.617 1.383 1.377" fill="#1A1919"/><path d="M10.986 11.795c.14.214-.051.584-.425.827-.375.243-.792.267-.932.054-.14-.214.05-.584.425-.827s.792-.267.932-.054" fill="#FFFFFE"/><path d="M25.281 13.982c0 2.79-2.198 5.052-4.91 5.052s-4.91-2.262-4.91-5.052c0-2.79 2.198-5.052 4.91-5.052 2.711 0 4.91 2.262 4.91 5.052" fill="#3466A2"/><path d="M24.725 14.214c0 2.359-1.92 4.272-4.289 4.272-2.369 0-4.289-1.913-4.289-4.272s1.92-4.272 4.289-4.272c2.369 0 4.289 1.913 4.289 4.272" fill="#274E8F"/><path d="M24.604 13.927c0 2.296-1.868 4.157-4.173 4.157-2.305 0-4.173-1.861-4.173-4.157 0-2.296 1.868-4.157 4.173-4.157 2.305 0 4.173 1.861 4.173 4.157" fill="#FFFFFE"/><path d="M23.134 14.422c0 1.487-1.211 2.693-2.704 2.693s-2.704-1.206-2.704-2.693 1.211-2.693 2.704-2.693 2.704 1.206 2.704 2.693" fill="#4B8655"/><path d="M21.689 14.698c0 .762-.621 1.381-1.386 1.381-.766 0-1.386-.618-1.386-1.381 0-.762.62-1.38 1.386-1.38.765 0 1.386.618 1.386 1.38" fill="#1A1919"/><path d="M21.959 13.3c.14.214-.051.585-.426.829-.376.244-.794.268-.934.054-.14-.214.051-.585.426-.829s.794-.268.934-.054" fill="#FFFFFE"/><path d="M8.562 18.102l1.486-.116c1.278-.1 2.428-.812 3.084-1.91l.991-1.661c.256-.428.905-.331 1.022.154l.243 1.006c.213.883.642 1.701 1.249 2.379.649.726 1.489 1.256 2.426 1.528l.661.193-2.726-2.184-1.146-4.722-1.34-.689-.972 1.24-.988 2.558-1.877 1.535-2.114.689" fill="#3875AD"/><path d="M3.45 8.284l.797.054.838.089.551.055c.369.041.738.083 1.106.137l.452.043c.303.032.604.076.904.129l.623.119c.284.057.566.126.846.199.318.083.633.176.946.275.417.132.829.274 1.241.42l1.295.455c.317.114.636.221.962.303.344.087.69.167 1.045.206.415.046.831.083 1.248.096.608.019 1.218.02 1.826-.021l1.061-.058c.941-.074 1.883-.086 2.825-.054.483.016.967.049 1.447.108.371.045.74.111 1.11.168.388.059.775.127 1.161.195.481.086.964.169 1.441.277.372.085.743.17 1.089.333.207.097.434.253.509.451v.143c.004.094-.069.09-.14.154-.097.088-.216.111-.334.116-.252.011-.486-.07-.707-.186-.527-.278-1.047-.567-1.609-.776-.265-.099-.534-.186-.805-.263-.347-.098-.7-.174-1.054-.237l-.515-.089-.735-.081c-.333-.033-.667-.047-1.001-.061-.335-.014-.671-.019-1.007.011l-.859.038-.794.048c-.366.031-.733.05-1.1.074-.237.016-.476.036-.713.035-.608-.002-1.215.03-1.823-.026-.318-.029-.634-.062-.949-.111-.36-.055-.714-.14-1.065-.233-.626-.167-1.24-.373-1.855-.577-.64-.213-1.28-.427-1.928-.617-.384-.113-.772-.21-1.159-.311l-.501-.112-.486-.094-.497-.087-.616-.084-.51-.059-.594-.047c-.274-.031-.548-.028-.821-.041-.31-.014-.622-.01-.934.008-.287.017-.569.045-.848.11-.304.071-.569.198-.733.479l-.119.067c-.292.015-.589-.001-.57-.565.072-.238.231-.394.461-.485.179-.07.364-.106.554-.123l1.042-.002" fill="#28251B"/><path d="M22.374 19.504c.511-.001 1.019-.031 1.511-.188.318-.101.61-.251.872-.457.676-.532 1.027-1.264 1.272-2.06.061-.197.108-.398.156-.599.055-.231.09-.466.13-.699.039-.228.066-.458.086-.689.04-.482.061-.96-.041-1.439-.123-.584-.505-.912-1.048-1.088-.266-.086-.534-.164-.806-.23l-.787-.165-.75-.123c-.331-.057-.664-.1-.997-.129-.479-.041-.958-.078-1.441-.077-.707.001-1.407.049-2.102.176-.328.06-.639.172-.931.33-.353.19-.627.451-.761.842-.104.303-.169.611-.208.929-.078.639-.024 1.27.124 1.892.073.307.184.606.321.893.388.813.958 1.465 1.735 1.93.567.34 1.178.574 1.82.731.299.073.601.127.905.169.312.044.627.053.942.052zm-14.473-1.998c.342.015.728-.018 1.11-.083.388-.065.766-.169 1.134-.315.65-.258 1.174-.68 1.618-1.204.422-.498.756-1.052.974-1.671.107-.304.186-.615.231-.934.048-.342.052-.685.002-1.028-.039-.264-.1-.517-.277-.731-.253-.306-.575-.519-.917-.708-.427-.236-.88-.416-1.342-.57-.328-.109-.66-.207-.994-.293-.291-.075-.585-.139-.881-.198-.317-.064-.635-.118-.954-.164-.434-.063-.871-.108-1.308-.13-.644-.033-1.287-.051-1.918.125-.217.06-.407.158-.548.341-.232.301-.361.648-.464 1.007-.065.228-.112.46-.157.693-.043.219-.07.439-.095.66-.026.227-.038.456-.05.685-.031.569-.066 1.137.043 1.703.044.227.111.446.204.656.199.451.494.83.874 1.144.356.294.758.505 1.196.647.248.08.502.14.757.195.257.056.516.094.775.129.312.042.627.051.99.046zm-6.508-8.613l.044.084c.006.289.233.496.525.482l.119-.067c.164-.281.429-.408.733-.479.279-.065.562-.093.848-.11.312-.019.624-.022.934-.008.273.012.547.01.821.041.196.022.395.039.594.047.171.007.34.037.51.059l.616.084.497.087.486.094.501.112c.387.101.775.198 1.159.311.648.19 1.288.405 1.928.617.615.204 1.229.41 1.855.577.351.094.704.178 1.065.233.315.048.631.081.949.111.608.056 1.216.024 1.823.026.237.001.476-.02.713-.035l1.1-.074.794-.048.859-.038c.336-.03.672-.025 1.007-.011.333.014.667.027 1.001.061l.735.081.515.089c.355.064.708.139 1.054.237.272.077.54.165.805.263.561.209 1.082.498 1.609.776.221.117.455.197.707.186.118-.005.237-.029.334-.116.071-.064.108-.134.104-.228 0-.011.001-.177.037-.07.084.254.104.729-.017 1.04-.077.174-.216.295-.353.417-.25.223-.506.44-.724.696-.177.206-.289.442-.346.709l-.164.652c-.043.209-.111.41-.167.614-.062.227-.137.451-.218.673-.143.393-.303.779-.503 1.147-.321.592-.734 1.105-1.292 1.494-.246.171-.516.289-.806.368-.575.156-1.159.186-1.751.151-.29-.017-.579-.048-.866-.088-.232-.032-.462-.081-.692-.131-.273-.059-.546-.12-.815-.196-.311-.088-.616-.199-.914-.328-.517-.224-1.003-.504-1.444-.856-.68-.543-1.207-1.202-1.538-2.012-.126-.309-.221-.627-.278-.954-.053-.302-.097-.605-.158-.905-.09-.442-.168-.889-.36-1.303-.07-.151-.149-.3-.31-.373-.334-.15-.643-.106-.892.21-.255.322-.437.686-.615 1.052-.286.591-.589 1.172-.98 1.702-.513.696-1.146 1.247-1.949 1.588-.29.123-.593.208-.903.271-.233.048-.466.097-.701.133-.292.045-.587.074-.883.093-.409.027-.816.026-1.225-.006-.253-.02-.506-.047-.756-.087-.204-.033-.407-.079-.609-.129-.326-.08-.642-.189-.959-.3-.857-.3-1.474-.854-1.845-1.684-.131-.294-.241-.594-.316-.904-.159-.659-.227-1.331-.181-2.007.024-.35.043-.699.026-1.048-.028-.591-.189-1.135-.582-1.6-.252-.299-.368-.657-.364-1.05l.037-.316.03-.108z" fill="#1C1913"/><path d="M6.331 3.412c1.092-.832 6.025-4.369 9.888-1.123l-5.719 1.082s-.333-.279-.393-.299c-.059-.02-3.776.339-3.776.339" fill="#378DC0"/><path d="M12.704 18.951l.004-.005c.059-.084.142-.351.142-.508-.163.039-.362.147-.464.28l-.04.119c0 .109.088.197.198.197.062 0 .117-.029.153-.074l.007-.009" fill="#5B4933"/><path d="M20.497.348c0 .101-.082.184-.184.184s-.184-.082-.184-.184c0-.101.082-.184.184-.184s.184.082.184.184" fill="#D29949"/><path d="M20.497.715c0 .101-.082.184-.184.184s-.184-.082-.184-.184c0-.101.082-.184.184-.184s.184.082.184.184" fill="#D29949"/><path d="M20.497 1.082c0 .101-.082.184-.184.184s-.184-.082-.184-.184c0-.101.082-.184.184-.184s.184.082.184.184" fill="#D29949"/><path d="M20.497 1.449c0 .101-.082.184-.184.184s-.184-.082-.184-.184c0-.101.082-.184.184-.184s.184.082.184.184" fill="#D29949"/><path d="M20.497 1.817c0 .101-.082.184-.184.184s-.184-.082-.184-.184c0-.101.082-.184.184-.184s.184.082.184.184" fill="#D29949"/><path d="M20.022 2.817l-.01.024c-.195.474-.327.97-.394 1.478l-.018.134c.457.202.975.22 1.445.049l.063-.023-.029-.177c-.085-.518-.239-1.022-.458-1.5l-.599.015" fill="#D29949"/><path fill="#E9BF50" d="M20.128 3.14l-.272 1.406.08.021.085.018.107-1.445"/><path d="M20.313 2.921l-.11 1.689c.131.015.311.01.466-.013l-.198-1.329.318 1.308.006-.001c.108-.019.213-.051.313-.095l-.204-.929-.283-.748-.308.119" fill="#E9BF50"/><path d="M20.769 2.467c0 .251-.204.455-.456.455s-.457-.204-.457-.455.204-.455.457-.455c.252 0 .456.204.456.455" fill="#D29949"/><path d="M20.558 2.414c0 .159-.13.288-.289.288-.16 0-.289-.129-.289-.288 0-.159.13-.288.289-.288.16 0 .289.129.289.288" fill="#E9BF50"/><path d="M15.643 18.041s-.606-.781-1.392-.842c-.786-.061-1.509.422-1.509.422-.034.699.913.095 1.472.138.421.033 1.2.905 1.429.282" fill="#D07944"/><path d="M15.619 17.779c.116-.374-.366-.968-1.153-1.029-.786-.061-1.564.053-1.607.64-.055.744.795.235 1.354.278.421.033 1.188.816 1.406.11" fill="#F1D1CF"/><path d="M15.641 17.698c.035-.455-.513-1.074-1.299-1.135-.786-.061-1.447.373-1.483.828-.036.455.919-.089 1.391-.047.47.042 1.355.81 1.391.355" fill="#E3B2B1"/><path d="M20.765 28.223s-.477-.759-.573-1.347l.072.111c.196.3.438.568.718.794-.037.105-.161.355-.217.442" fill="#274E8F"/><path d="M7.94 26.039c-.678.556-1.357.699-1.357.699.009.202.04.41.08.555 0 0 .854-.447 1.277-1.255" fill="#274E8F"/><path d="M7.691 4.363s.861-.624 2.07-1.174l.173-.074-.659.984-1.584.264" fill="#3466A2"/><path d="M8.859 3.812c-.531.452-1.231 1.207-1.455 1.921 0 0 5.143-1.817 7.291-3.083v.099l-2.736.584-3.101.48" fill="#3466A2"/><path d="M9.75 2.948l-.132.12c-.582.528-1.105 1.118-1.558 1.759 1.742-.512 5.311-1.687 6.636-2.079l-4.946.2" fill="#378DC0"/><path fill="#3466A2" d="M14.324 2.886l-1.384 1.41 2.439-.59-1.054-.82"/><path d="M6.726 6.991l.277.61c1.184-.846 2.755-.995 4.069-.885l.336-1.554c-2.054-.118-3.621.599-4.682 1.83" fill="#345B99"/><path fill="#378DC0" d="M14.696 2.577l-1.549 1.285 2.598-.206-1.048-1.079"/></g></svg>