<svg width="930px" height="239px" viewBox="0 0 930 239" version="1.1" xmlns="http://www.w3.org/2000/svg" xmlns:xlink="http://www.w3.org/1999/xlink">
    <g id="Page-1" stroke="none" stroke-width="1" fill="none" fill-rule="evenodd">
        <g id="uk.edubirdie_1366" transform="translate(-218.000000, -960.000000)" fill="#035281" fill-rule="nonzero">
            <g id="Group" transform="translate(0.000000, -2262.000000)">
                <g id="1" transform="translate(103.000000, 2867.000000)">
                    <path d="M115.5,355 L116.5,355 L116.5,357 L115.5,357 L115.5,355 Z M115.5,362 L116.5,362 L116.5,364 L115.5,364 L115.5,362 Z M115.5,369 L116.5,369 L116.5,371 L115.5,371 L115.5,369 Z M115.5,376 L116.5,376 L116.5,378 L115.5,378 L115.5,376 Z M115.5,383 L116.5,383 L116.5,385 L115.5,385 L115.5,383 Z M115.5,390 L116.5,390 L116.5,392 L115.5,392 L115.5,390 Z M115.5,397 L116.5,397 L116.5,399 L115.5,399 L115.5,397 Z M115.5,404 L116.5,404 L116.5,406 L115.5,406 L115.5,404 Z M115.5,411 L116.5,411 L116.5,413 L115.5,413 L115.5,411 Z M115.5,418 L116.5,418 L116.5,420 L115.5,420 L115.5,418 Z M115.5,425 L116.5,425 L116.5,427 L115.5,427 L115.5,425 Z M115.5,432 L116.5,432 L116.5,434 L115.5,434 L115.5,432 Z M115.5,439 L116.5,439 L116.5,441 L115.5,441 L115.5,439 Z M115.5,446 L116.5,446 L116.5,448 L115.5,448 L115.5,446 Z M115.5,453 L116.5,453 L116.5,455 L115.5,455 L115.5,453 Z M115.5,460 L116.5,460 L116.5,462 L115.5,462 L115.5,460 Z M115.5,467 L116.5,467 L116.5,469 L115.5,469 L115.5,467 Z M115.5,474 L116.5,474 L116.5,476 L115.5,476 L115.5,474 Z M115.5,481 L116.5,481 L116.5,483 L115.5,483 L115.5,481 Z M115.5,488 L116.5,488 L116.5,490 L115.5,490 L115.5,488 Z M115.5,495 L116.5,495 L116.5,497 L115.5,497 L115.5,495 Z M115.5,502 L116.5,502 L116.5,504 L115.5,504 L115.5,502 Z M115.5,509 L116.5,509 L116.5,511 L115.5,511 L115.5,509 Z M115.5,516 L116.5,516 L116.5,518 L115.5,518 L115.5,516 Z M115.5,523 L116.5,523 L116.5,525 L115.5,525 L115.5,523 Z M115.5,530 L116.5,530 L116.5,532 L115.5,532 L115.5,530 Z M115.5,537 L116.5,537 L116.5,539 L115.5,539 L115.5,537 Z M115.5,544 L116.5,544 L116.5,546 L115.5,546 L115.5,544 Z M115.5,551 L116.5,551 L116.5,553 L115.5,553 L115.5,551 Z M115.5,558 L116.5,558 L116.5,560 L115.5,560 L115.5,558 Z M115.5,565 L116.5,565 L116.5,567 L115.5,567 L115.5,565 Z M115.5,572 L116.5,572 L116.5,574 L115.5,574 L115.5,572 Z M115.5,579 L116.5,579 L116.5,581 L115.5,581 L115.5,579 Z M115.5,586 L116.5,586 L116.5,588 L115.5,588 L115.5,586 Z M122,593.5 L122,592.5 L124,592.5 L124,593.5 L122,593.5 Z M129,593.5 L129,592.5 L131,592.5 L131,593.5 L129,593.5 Z M136,593.5 L136,592.5 L138,592.5 L138,593.5 L136,593.5 Z M143,593.5 L143,592.5 L145,592.5 L145,593.5 L143,593.5 Z M150,593.5 L150,592.5 L152,592.5 L152,593.5 L150,593.5 Z M157,593.5 L157,592.5 L159,592.5 L159,593.5 L157,593.5 Z M164,593.5 L164,592.5 L166,592.5 L166,593.5 L164,593.5 Z M171,593.5 L171,592.5 L173,592.5 L173,593.5 L171,593.5 Z M178,593.5 L178,592.5 L180,592.5 L180,593.5 L178,593.5 Z M185,593.5 L185,592.5 L187,592.5 L187,593.5 L185,593.5 Z M192,593.5 L192,592.5 L194,592.5 L194,593.5 L192,593.5 Z M199,593.5 L199,592.5 L201,592.5 L201,593.5 L199,593.5 Z M206,593.5 L206,592.5 L208,592.5 L208,593.5 L206,593.5 Z M213,593.5 L213,592.5 L215,592.5 L215,593.5 L213,593.5 Z M220,593.5 L220,592.5 L222,592.5 L222,593.5 L220,593.5 Z M227,593.5 L227,592.5 L229,592.5 L229,593.5 L227,593.5 Z M234,593.5 L234,592.5 L236,592.5 L236,593.5 L234,593.5 Z M241,593.5 L241,592.5 L243,592.5 L243,593.5 L241,593.5 Z M248,593.5 L248,592.5 L250,592.5 L250,593.5 L248,593.5 Z M255,593.5 L255,592.5 L257,592.5 L257,593.5 L255,593.5 Z M262,593.5 L262,592.5 L264,592.5 L264,593.5 L262,593.5 Z M269,593.5 L269,592.5 L271,592.5 L271,593.5 L269,593.5 Z M276,593.5 L276,592.5 L278,592.5 L278,593.5 L276,593.5 Z M283,593.5 L283,592.5 L285,592.5 L285,593.5 L283,593.5 Z M290,593.5 L290,592.5 L292,592.5 L292,593.5 L290,593.5 Z M297,593.5 L297,592.5 L299,592.5 L299,593.5 L297,593.5 Z M304,593.5 L304,592.5 L306,592.5 L306,593.5 L304,593.5 Z M311,593.5 L311,592.5 L313,592.5 L313,593.5 L311,593.5 Z M318,593.5 L318,592.5 L320,592.5 L320,593.5 L318,593.5 Z M325,593.5 L325,592.5 L327,592.5 L327,593.5 L325,593.5 Z M332,593.5 L332,592.5 L334,592.5 L334,593.5 L332,593.5 Z M339,593.5 L339,592.5 L341,592.5 L341,593.5 L339,593.5 Z M346,593.5 L346,592.5 L348,592.5 L348,593.5 L346,593.5 Z M353,593.5 L353,592.5 L355,592.5 L355,593.5 L353,593.5 Z M360,593.5 L360,592.5 L362,592.5 L362,593.5 L360,593.5 Z M367,593.5 L367,592.5 L369,592.5 L369,593.5 L367,593.5 Z" id="Combined-Shape"></path>
                    <path d="M425,355 L426,355 L426,357 L425,357 L425,355 Z M425,362 L426,362 L426,364 L425,364 L425,362 Z M425,369 L426,369 L426,371 L425,371 L425,369 Z M425,376 L426,376 L426,378 L425,378 L425,376 Z M425,383 L426,383 L426,385 L425,385 L425,383 Z M425,390 L426,390 L426,392 L425,392 L425,390 Z M425,397 L426,397 L426,399 L425,399 L425,397 Z M425,404 L426,404 L426,406 L425,406 L425,404 Z M425,411 L426,411 L426,413 L425,413 L425,411 Z M425,418 L426,418 L426,420 L425,420 L425,418 Z M425,425 L426,425 L426,427 L425,427 L425,425 Z M425,432 L426,432 L426,434 L425,434 L425,432 Z M425,439 L426,439 L426,441 L425,441 L425,439 Z M425,446 L426,446 L426,448 L425,448 L425,446 Z M425,453 L426,453 L426,455 L425,455 L425,453 Z" id="Path-3"></path>
                    <path d="M731,355 L732,355 L732,357 L731,357 L731,355 Z M731,362 L732,362 L732,364 L731,364 L731,362 Z M731,369 L732,369 L732,371 L731,371 L731,369 Z M731,376 L732,376 L732,378 L731,378 L731,376 Z M731,383 L732,383 L732,385 L731,385 L731,383 Z M731,390 L732,390 L732,392 L731,392 L731,390 Z M731,397 L732,397 L732,399 L731,399 L731,397 Z M731,404 L732,404 L732,406 L731,406 L731,404 Z M731,411 L732,411 L732,413 L731,413 L731,411 Z M731,418 L732,418 L732,420 L731,420 L731,418 Z M731,425 L732,425 L732,427 L731,427 L731,425 Z M731,432 L732,432 L732,434 L731,434 L731,432 Z M731,439 L732,439 L732,441 L731,441 L731,439 Z M731,446 L732,446 L732,448 L731,448 L731,446 Z M731,453 L732,453 L732,455 L731,455 L731,453 Z" id="Path-3"></path>
                    <path d="M1044.5,588 L1043.5,588 L1043.5,586 L1044.5,586 L1044.5,588 Z M1044.5,581 L1043.5,581 L1043.5,579 L1044.5,579 L1044.5,581 Z M1044.5,574 L1043.5,574 L1043.5,572 L1044.5,572 L1044.5,574 Z M1044.5,567 L1043.5,567 L1043.5,565 L1044.5,565 L1044.5,567 Z M1044.5,560 L1043.5,560 L1043.5,558 L1044.5,558 L1044.5,560 Z M1044.5,553 L1043.5,553 L1043.5,551 L1044.5,551 L1044.5,553 Z M1044.5,546 L1043.5,546 L1043.5,544 L1044.5,544 L1044.5,546 Z M1044.5,539 L1043.5,539 L1043.5,537 L1044.5,537 L1044.5,539 Z M1044.5,532 L1043.5,532 L1043.5,530 L1044.5,530 L1044.5,532 Z M1044.5,525 L1043.5,525 L1043.5,523 L1044.5,523 L1044.5,525 Z M1044.5,518 L1043.5,518 L1043.5,516 L1044.5,516 L1044.5,518 Z M1044.5,511 L1043.5,511 L1043.5,509 L1044.5,509 L1044.5,511 Z M1044.5,504 L1043.5,504 L1043.5,502 L1044.5,502 L1044.5,504 Z M1044.5,497 L1043.5,497 L1043.5,495 L1044.5,495 L1044.5,497 Z M1044.5,490 L1043.5,490 L1043.5,488 L1044.5,488 L1044.5,490 Z M1044.5,483 L1043.5,483 L1043.5,481 L1044.5,481 L1044.5,483 Z M1044.5,476 L1043.5,476 L1043.5,474 L1044.5,474 L1044.5,476 Z M1044.5,469 L1043.5,469 L1043.5,467 L1044.5,467 L1044.5,469 Z M1044.5,462 L1043.5,462 L1043.5,460 L1044.5,460 L1044.5,462 Z M1044.5,455 L1043.5,455 L1043.5,453 L1044.5,453 L1044.5,455 Z M1044.5,448 L1043.5,448 L1043.5,446 L1044.5,446 L1044.5,448 Z M1044.5,441 L1043.5,441 L1043.5,439 L1044.5,439 L1044.5,441 Z M1044.5,434 L1043.5,434 L1043.5,432 L1044.5,432 L1044.5,434 Z M1044.5,427 L1043.5,427 L1043.5,425 L1044.5,425 L1044.5,427 Z M1044.5,420 L1043.5,420 L1043.5,418 L1044.5,418 L1044.5,420 Z M1044.5,413 L1043.5,413 L1043.5,411 L1044.5,411 L1044.5,413 Z M1044.5,406 L1043.5,406 L1043.5,404 L1044.5,404 L1044.5,406 Z M1044.5,399 L1043.5,399 L1043.5,397 L1044.5,397 L1044.5,399 Z M1044.5,392 L1043.5,392 L1043.5,390 L1044.5,390 L1044.5,392 Z M1044.5,385 L1043.5,385 L1043.5,383 L1044.5,383 L1044.5,385 Z M1044.5,378 L1043.5,378 L1043.5,376 L1044.5,376 L1044.5,378 Z M1044.5,371 L1043.5,371 L1043.5,369 L1044.5,369 L1044.5,371 Z M1044.5,364 L1043.5,364 L1043.5,362 L1044.5,362 L1044.5,364 Z M1044.5,357 L1043.5,357 L1043.5,355 L1044.5,355 L1044.5,357 Z M1034.50053,592.5 L1034.50053,593.5 L1032.50053,593.5 L1032.50053,592.5 L1034.50053,592.5 Z M1027.50053,592.5 L1027.50053,593.5 L1025.50053,593.5 L1025.50053,592.5 L1027.50053,592.5 Z M1020.50053,592.5 L1020.50053,593.5 L1018.50053,593.5 L1018.50053,592.5 L1020.50053,592.5 Z M1013.50053,592.5 L1013.50053,593.5 L1011.50053,593.5 L1011.50053,592.5 L1013.50053,592.5 Z M1006.50053,592.5 L1006.50053,593.5 L1004.50053,593.5 L1004.50053,592.5 L1006.50053,592.5 Z M999.500533,592.5 L999.500533,593.5 L997.500533,593.5 L997.500533,592.5 L999.500533,592.5 Z M992.500533,592.5 L992.500533,593.5 L990.500533,593.5 L990.500533,592.5 L992.500533,592.5 Z M985.500533,592.5 L985.500533,593.5 L983.500533,593.5 L983.500533,592.5 L985.500533,592.5 Z M978.500533,592.5 L978.500533,593.5 L976.500533,593.5 L976.500533,592.5 L978.500533,592.5 Z M971.500533,592.5 L971.500533,593.5 L969.500533,593.5 L969.500533,592.5 L971.500533,592.5 Z M964.500533,592.5 L964.500533,593.5 L962.500533,593.5 L962.500533,592.5 L964.500533,592.5 Z M957.500533,592.5 L957.500533,593.5 L955.500533,593.5 L955.500533,592.5 L957.500533,592.5 Z M950.500533,592.5 L950.500533,593.5 L948.500533,593.5 L948.500533,592.5 L950.500533,592.5 Z M943.500533,592.5 L943.500533,593.5 L941.500533,593.5 L941.500533,592.5 L943.500533,592.5 Z M936.500533,592.5 L936.500533,593.5 L934.500533,593.5 L934.500533,592.5 L936.500533,592.5 Z M929.500533,592.5 L929.500533,593.5 L927.500533,593.5 L927.500533,592.5 L929.500533,592.5 Z M922.500533,592.5 L922.500533,593.5 L920.500533,593.5 L920.500533,592.5 L922.500533,592.5 Z M915.500533,592.5 L915.500533,593.5 L913.500533,593.5 L913.500533,592.5 L915.500533,592.5 Z M908.500533,592.5 L908.500533,593.5 L906.500533,593.5 L906.500533,592.5 L908.500533,592.5 Z M901.500533,592.5 L901.500533,593.5 L899.500533,593.5 L899.500533,592.5 L901.500533,592.5 Z M894.500533,592.5 L894.500533,593.5 L892.500533,593.5 L892.500533,592.5 L894.500533,592.5 Z M887.500533,592.5 L887.500533,593.5 L885.500533,593.5 L885.500533,592.5 L887.500533,592.5 Z M880.500533,592.5 L880.500533,593.5 L878.500533,593.5 L878.500533,592.5 L880.500533,592.5 Z M873.500533,592.5 L873.500533,593.5 L871.500533,593.5 L871.500533,592.5 L873.500533,592.5 Z M866.500533,592.5 L866.500533,593.5 L864.500533,593.5 L864.500533,592.5 L866.500533,592.5 Z M859.500533,592.5 L859.500533,593.5 L857.500533,593.5 L857.500533,592.5 L859.500533,592.5 Z M852.500533,592.5 L852.500533,593.5 L850.500533,593.5 L850.500533,592.5 L852.500533,592.5 Z M845.500533,592.5 L845.500533,593.5 L843.500533,593.5 L843.500533,592.5 L845.500533,592.5 Z M838.500533,592.5 L838.500533,593.5 L836.500533,593.5 L836.500533,592.5 L838.500533,592.5 Z M831.500533,592.5 L831.500533,593.5 L829.500533,593.5 L829.500533,592.5 L831.500533,592.5 Z M824.500533,592.5 L824.500533,593.5 L822.500533,593.5 L822.500533,592.5 L824.500533,592.5 Z M817.500533,592.5 L817.500533,593.5 L815.500533,593.5 L815.500533,592.5 L817.500533,592.5 Z M810.500533,592.5 L810.500533,593.5 L808.500533,593.5 L808.500533,592.5 L810.500533,592.5 Z M803.500533,592.5 L803.500533,593.5 L801.500533,593.5 L801.500533,592.5 L803.500533,592.5 Z M796.500533,592.5 L796.500533,593.5 L794.500533,593.5 L794.500533,592.5 L796.500533,592.5 Z M789.500533,592.5 L789.500533,593.5 L787.500533,593.5 L787.500533,592.5 L789.500533,592.5 Z" id="Combined-Shape"></path>
                </g>
            </g>
        </g>
    </g>
</svg>