<svg width="428px" height="167px" viewBox="0 0 428 167" version="1.1" xmlns="http://www.w3.org/2000/svg" xmlns:xlink="http://www.w3.org/1999/xlink">
    <g id="Page-1" stroke="none" stroke-width="1" fill="none" fill-rule="evenodd">
        <g id="uk.edubirdie_768" transform="translate(-170.000000, -1129.000000)" fill="#035281" fill-rule="nonzero">
            <g id="1" transform="translate(50.000000, 729.000000)">
                <path d="M121.5,479 L120.5,479 L120.5,477 L121.5,477 L121.5,479 Z M121.5,472 L120.5,472 L120.5,470 L121.5,470 L121.5,472 Z M121.5,465 L120.5,465 L120.5,463 L121.5,463 L121.5,465 Z M121.5,458 L120.5,458 L120.5,456 L121.5,456 L121.5,458 Z M121.5,451 L120.5,451 L120.5,449 L121.5,449 L121.5,451 Z M121.5,444 L120.5,444 L120.5,442 L121.5,442 L121.5,444 Z M121.5,437 L120.5,437 L120.5,435 L121.5,435 L121.5,437 Z M121.5,430 L120.5,430 L120.5,428 L121.5,428 L121.5,430 Z M121.5,423 L120.5,423 L120.5,421 L121.5,421 L121.5,423 Z M121.5,416 L120.5,416 L120.5,414 L121.5,414 L121.5,416 Z M121.5,409 L120.5,409 L120.5,407 L121.5,407 L121.5,409 Z M121.5,402 L120.5,402 L120.5,400 L121.5,400 L121.5,402 Z M121.5,567 L120.5,567 L120.5,565 L121.5,565 L121.5,567 Z M121.5,560 L120.5,560 L120.5,558 L121.5,558 L121.5,560 Z M121.5,553 L120.5,553 L120.5,551 L121.5,551 L121.5,553 Z M121.5,546 L120.5,546 L120.5,544 L121.5,544 L121.5,546 Z M121.5,539 L120.5,539 L120.5,537 L121.5,537 L121.5,539 Z M121.5,532 L120.5,532 L120.5,530 L121.5,530 L121.5,532 Z M121.5,525 L120.5,525 L120.5,523 L121.5,523 L121.5,525 Z M121.5,518 L120.5,518 L120.5,516 L121.5,516 L121.5,518 Z M121.5,511 L120.5,511 L120.5,509 L121.5,509 L121.5,511 Z M121.5,504 L120.5,504 L120.5,502 L121.5,502 L121.5,504 Z M121.5,497 L120.5,497 L120.5,495 L121.5,495 L121.5,497 Z M121.5,490 L120.5,490 L120.5,488 L121.5,488 L121.5,490 Z M191,483.5 L191,484.5 L189,484.5 L189,483.5 L191,483.5 Z M184,483.5 L184,484.5 L182,484.5 L182,483.5 L184,483.5 Z M177,483.5 L177,484.5 L175,484.5 L175,483.5 L177,483.5 Z M170,483.5 L170,484.5 L168,484.5 L168,483.5 L170,483.5 Z M163,483.5 L163,484.5 L161,484.5 L161,483.5 L163,483.5 Z M156,483.5 L156,484.5 L154,484.5 L154,483.5 L156,483.5 Z M149,483.5 L149,484.5 L147,484.5 L147,483.5 L149,483.5 Z M142,483.5 L142,484.5 L140,484.5 L140,483.5 L142,483.5 Z M135,483.5 L135,484.5 L133,484.5 L133,483.5 L135,483.5 Z M128,483.5 L128,484.5 L126,484.5 L126,483.5 L128,483.5 Z M121,483.5 L121,484.5 L120,484.5 L120,483.5 L121,483.5 Z" id="Combined-Shape"></path>
                <path d="M547.006993,479 L548,479 L548,477 L547.006993,477 L547.006993,479 Z M547.006993,472 L548,472 L548,470 L547.006993,470 L547.006993,472 Z M547.006993,465 L548,465 L548,463 L547.006993,463 L547.006993,465 Z M547.006993,458 L548,458 L548,456 L547.006993,456 L547.006993,458 Z M547.006993,451 L548,451 L548,449 L547.006993,449 L547.006993,451 Z M547.006993,444 L548,444 L548,442 L547.006993,442 L547.006993,444 Z M547.006993,437 L548,437 L548,435 L547.006993,435 L547.006993,437 Z M547.006993,430 L548,430 L548,428 L547.006993,428 L547.006993,430 Z M547.006993,423 L548,423 L548,421 L547.006993,421 L547.006993,423 Z M547.006993,416 L548,416 L548,414 L547.006993,414 L547.006993,416 Z M547.006993,409 L548,409 L548,407 L547.006993,407 L547.006993,409 Z M547.006993,402 L547.006993,400 L548,400 L548,402 L547.006993,402 Z M547.006993,567 L547.006993,565 L548,565 L548,567 L547.006993,567 Z M547.006993,560 L547.006993,558 L548,558 L548,560 L547.006993,560 Z M547.006993,553 L547.006993,551 L548,551 L548,553 L547.006993,553 Z M547.006993,546 L547.006993,544 L548,544 L548,546 L547.006993,546 Z M547.006993,539 L547.006993,537 L548,537 L548,539 L547.006993,539 Z M547.006993,532 L547.006993,530 L548,530 L548,532 L547.006993,532 Z M547.006993,525 L547.006993,523 L548,523 L548,525 L547.006993,525 Z M547.006993,518 L547.006993,516 L548,516 L548,518 L547.006993,518 Z M547.006993,511 L547.006993,509 L548,509 L548,511 L547.006993,511 Z M547.006993,504 L547.006993,502 L548,502 L548,504 L547.006993,504 Z M547.006993,497 L547.006993,495 L548,495 L548,497 L547.006993,497 Z M547.006993,490 L547.006993,488 L548,488 L548,490 L547.006993,490 Z M477,483.5 L478.986014,483.5 L478.986014,484.5 L477,484.5 L477,483.5 Z M483.951049,483.5 L485.937063,483.5 L485.937063,484.5 L483.951049,484.5 L483.951049,483.5 Z M490.902098,483.5 L492.888112,483.5 L492.888112,484.5 L490.902098,484.5 L490.902098,483.5 Z M497.853147,483.5 L499.839161,483.5 L499.839161,484.5 L497.853147,484.5 L497.853147,483.5 Z M504.804196,483.5 L506.79021,483.5 L506.79021,484.5 L504.804196,484.5 L504.804196,483.5 Z M511.755245,483.5 L513.741259,483.5 L513.741259,484.5 L511.755245,484.5 L511.755245,483.5 Z M518.706294,483.5 L520.692308,483.5 L520.692308,484.5 L518.706294,484.5 L518.706294,483.5 Z M525.657343,483.5 L527.643357,483.5 L527.643357,484.5 L525.657343,484.5 L525.657343,483.5 Z M532.608392,483.5 L534.594406,483.5 L534.594406,484.5 L532.608392,484.5 L532.608392,483.5 Z M539.559441,483.5 L541.545455,483.5 L541.545455,484.5 L539.559441,484.5 L539.559441,483.5 Z M546.51049,483.5 L547.503497,483.5 L547.503497,484.5 L546.51049,484.5 L546.51049,483.5 Z" id="Combined-Shape"></path>
            </g>
        </g>
    </g>
</svg>