<?xml version="1.0" encoding="UTF-8" standalone="no"?>
<svg width="129px" height="151px" viewBox="0 0 129 151" version="1.1" xmlns="http://www.w3.org/2000/svg" xmlns:xlink="http://www.w3.org/1999/xlink">
    <!-- Generator: sketchtool 45.2 (43514) - http://www.bohemiancoding.com/sketch -->
    <title>E0B918CB-95E3-49DA-AA08-B68927F42CFE</title>
    <desc>Created with sketchtool.</desc>
    <defs></defs>
    <g id="Page-1" stroke="none" stroke-width="1" fill="none" fill-rule="evenodd">
        <g id="iPhone-SE" transform="translate(-186.000000, -1734.000000)" fill-rule="nonzero" fill="#06598A">
            <g id="4" transform="translate(0.000000, 1717.000000)">
                <path d="M249.265181,16.7901094 C216.198583,16.7901094 189.268055,43.6862529 189.268055,76.7106317 L189.268055,83.1793245 L189.268055,87.4350434 L189.268055,111.777756 C189.268055,117.735762 194.211,122.672396 200.176623,122.672396 L202.22198,122.672396 C208.187603,122.672396 213.130548,117.735762 213.130548,111.777756 L213.130548,83.1793245 C213.130548,77.221318 208.187603,72.2846841 202.22198,72.2846841 L200.176623,72.2846841 C199.324392,72.2846841 198.642606,72.4549128 197.790374,72.6251416 C200.006177,46.0694555 222.164206,25.1313184 249.265181,25.1313184 C276.366155,25.1313184 298.524184,46.0694555 300.739987,72.6251416 C300.058201,72.4549128 299.205969,72.2846841 298.353738,72.2846841 L296.308381,72.2846841 C290.342758,72.2846841 285.399813,77.221318 285.399813,83.1793245 L285.399813,111.777756 C285.399813,117.565533 290.001865,122.16171 295.626596,122.502167 C294.263024,143.099847 277.900172,159.782265 256.764821,163.016611 C255.912589,161.995239 254.719465,161.314324 253.355894,161.314324 L245.174467,161.314324 C242.788218,161.314324 240.742862,163.357069 240.742862,165.740272 C240.742862,168.123474 242.788218,170.166219 245.174467,170.166219 L253.355894,170.166219 C255.230804,170.166219 256.935268,168.974618 257.446607,167.27233 C280.286421,163.697526 298.012845,145.142592 299.376416,122.672396 C304.8307,122.16171 309.262306,117.565533 309.262306,111.947984 L309.262306,84.0304683 L309.262306,83.1793245 L309.262306,76.7106317 C309.262306,43.6862529 282.331778,16.7901094 249.265181,16.7901094 Z" id="Shape" transform="translate(249.265181, 93.478164) rotate(20.000000) translate(-249.265181, -93.478164) "></path>
            </g>
        </g>
    </g>
</svg>