<?xml version="1.0" encoding="UTF-8"?>
<svg width="34px" height="40px" viewBox="0 0 34 40" version="1.1" xmlns="http://www.w3.org/2000/svg" xmlns:xlink="http://www.w3.org/1999/xlink">
    <!-- Generator: Sketch 42 (36781) - http://www.bohemiancoding.com/sketch -->
    <title>Fill 1</title>
    <desc>Created with Sketch.</desc>
    <defs></defs>
    <g id="Page-1" stroke="none" stroke-width="1" fill="none" fill-rule="evenodd">
        <g id="Desktop_alt_3_mobile" transform="translate(-19.000000, -434.000000)" fill="#03C1FF">
            <g id="info" transform="translate(0.000000, 169.000000)">
                <g id="writer" transform="translate(10.000000, 259.000000)">
                    <path d="M41.6740834,43.7833512 L10.2615476,43.7833512 L10.2615476,38.4217739 C10.2615476,35.5195836 12.0907917,32.8703335 14.8661964,31.9241728 L20.0385417,30.0324822 C20.0385417,30.0324822 20.3747441,29.9164198 20.7267159,29.7953112 C21.2609813,31.9128189 23.4403048,33.4903842 25.9993542,33.4903842 C28.5647113,33.4903842 30.7484502,31.9058804 31.2770387,29.7808034 C31.5684562,29.8987581 31.8693353,30.0186052 31.9298896,30.0444669 L37.0688038,31.9241728 C39.8448393,32.9340417 41.6740834,35.5195836 41.6740834,38.4217739 L41.6740834,43.7833512 Z M23.1924107,27.8247738 C24.0754941,28.3924703 25.0216548,28.7078572 26.0308929,28.7078572 C27.040131,28.7078572 27.9862917,28.3924703 28.8687443,27.8247738 C29.086992,28.2240537 29.6521653,28.7261496 30.0968609,29.0850599 L30.0949685,29.1008293 C29.9139365,30.9395349 28.1156003,32.3789608 25.9993542,32.3789608 C23.9146467,32.3789608 22.1415416,30.9805352 21.9176169,29.1809375 C22.3389738,28.8245503 22.9533475,28.2625309 23.1924107,27.8247738 L23.1924107,27.8247738 Z M19.092381,17.2908512 L19.092381,16.9117561 L26.0308929,19.24625 L32.968774,16.9117561 L32.968774,17.2908512 C32.968774,21.2016488 29.814905,27.3832322 26.0308929,27.3832322 C22.24625,27.3832322 19.092381,21.2016488 19.092381,17.2908512 L19.092381,17.2908512 Z M17.2000595,14.9569881 L17.2000595,13.3800536 L26.0308929,16.092381 L34.8610955,13.3800536 L34.8610955,14.9569881 L26.0308929,17.921625 L17.2000595,14.9569881 Z M13.6677262,11.0461905 L26.0308929,7.26154762 L38.3940596,11.0461905 L26.0308929,14.8308333 L13.6677262,11.0461905 Z M37.637131,30.663256 L31.7072264,28.5810716 C30.9509286,28.3293929 30.1302919,27.6349109 29.8786131,27.0678453 C32.5278631,24.7339822 34.2303216,20.4447203 34.2303216,17.3539286 C34.2303216,17.1016191 34.2303216,16.8493095 34.167875,16.5339226 L36.1226431,15.9031488 L36.1226431,13.0646667 L37.3841907,12.6862024 L37.3841907,21.4205273 C36.5900465,21.703114 36.0179346,22.4537348 36.0179346,23.3450182 C36.0179346,24.4772572 36.9357105,25.3950331 38.0679495,25.3950331 C39.2001885,25.3950331 40.1179644,24.4772572 40.1179644,23.3450182 C40.1179644,22.4152576 39.4947599,21.6387751 38.6457383,21.3877271 L38.6457383,12.3077381 L42.6833215,11.0461905 L26.0308929,6 L9.37846429,11.0461905 L15.9385119,13.0646667 L15.9385119,15.9031488 L17.8939107,16.5339226 C17.8939107,16.7862322 17.8308333,17.0385417 17.8308333,17.3539286 C17.8308333,20.4447203 19.5332919,24.7964288 22.1831726,27.0678453 C21.7410002,28.0770834 20.3539286,28.5810716 20.3539286,28.5810716 L14.4871014,30.663256 C11.2077083,31.8617262 9,34.9525179 9,38.4217739 L9,45.0448989 L42.9987084,45.0448989 L42.9987084,38.4217739 C43.061155,34.9525179 40.8534467,31.8617262 37.637131,30.663256 L37.637131,30.663256 Z" id="Fill-1"></path>
                </g>
            </g>
        </g>
    </g>
</svg>