<?xml version="1.0" encoding="UTF-8" standalone="no"?>
<svg width="37px" height="35px" viewBox="0 0 37 35" version="1.1" xmlns="http://www.w3.org/2000/svg" xmlns:xlink="http://www.w3.org/1999/xlink">
    <!-- Generator: sketchtool 46.2 (44496) - http://www.bohemiancoding.com/sketch -->
    <title>5CE09D87-9AA1-4961-8626-4E82C8ABA132</title>
    <desc>Created with sketchtool.</desc>
    <defs></defs>
    <g id="Page-1" stroke="none" stroke-width="1" fill="none" fill-rule="evenodd" opacity="0.5">
        <g id="LP_dissertation" transform="translate(-456.000000, -4353.000000)" fill="#FFFFFF">
            <g id="9" transform="translate(0.000000, 4021.000000)">
                <g id="Group-6" transform="translate(308.000000, 332.000000)">
                    <g id="amex" transform="translate(148.000000, 0.000000)">
                        <path d="M4.53401136,13.5226477 L5.18628409,15.1135568 L3.88969318,15.1135568 L4.53401136,13.5226477 Z M5.52832955,15.9726477 L5.89423864,16.8635568 L7.83514773,16.8635568 L7.83514773,13.7374205 L9.22719318,16.8635568 L10.0226477,16.8635568 L11.3987841,13.745375 L11.3987841,16.8635568 L12.3771932,16.8635568 L12.3771932,12.8862841 L10.7862841,12.8862841 L9.64082955,15.5908295 L8.39196591,12.8862841 L6.80105682,12.8862841 L6.80105682,16.6646932 L5.21014773,12.8862841 L3.84196591,12.8862841 L2.13969318,16.8635568 L3.18173864,16.8635568 L3.55560227,15.9726477 L5.52832955,15.9726477 Z" id="Fill-2"></path>
                        <polygon id="Fill-3" points="28.5965114 20.5625 28.5965114 19.7352273 25.4067386 19.7352273 25.4067386 23.7204545 28.5965114 23.7204545 28.5965114 22.9011364 26.3533295 22.8931818 26.3533295 22.0977273 28.532875 22.0977273 28.532875 21.2863636 26.3533295 21.2863636 26.3533295 20.5625"></polygon>
                        <path d="M31.0228864,22.8692386 C31.1716364,22.8915114 31.3227727,22.854125 31.4444773,22.7658295 C31.5144773,22.696625 31.55425,22.6027614 31.5558409,22.5033295 C31.5566364,22.4031023 31.5128864,22.3060568 31.4365227,22.2408295 C31.3347045,22.1756023 31.2145909,22.145375 31.0944773,22.1533295 C30.2035682,22.1215114 29.0899318,22.1851477 29.0899318,20.920375 C29.0899318,20.3476477 29.4478864,19.7351477 30.4501591,19.7351477 L32.35925,19.7351477 L32.35925,20.6101477 L30.60925,20.6101477 C30.4772045,20.5958295 30.3443636,20.6204886 30.2274318,20.6817386 C30.1860682,20.7111705 30.1526591,20.7485568 30.128,20.7923068 C30.0389091,20.9537841 30.0977727,21.1574205 30.25925,21.2465114 C30.3777727,21.2807159 30.5010682,21.296625 30.6251591,21.2942386 L31.1422045,21.2942386 C31.5335682,21.2608295 31.9233409,21.3769659 32.2319773,21.620375 C32.4419773,21.8486705 32.5461818,22.1549205 32.5183409,22.4635568 C32.5183409,23.3226477 31.9853864,23.720375 31.0228864,23.720375 L29.1615227,23.720375 L29.1615227,22.8692386 L31.0228864,22.8692386 Z" id="Fill-4"></path>
                        <path d="M32.1683409,24.507875 L32.1683409,24.1499205 C31.7825455,24.3988977 31.3299318,24.5237841 30.87175,24.507875 L23.0683409,24.507875 L23.0683409,23.2192386 C23.0683409,23.0681023 23.0683409,23.0601477 22.8933409,23.0601477 L22.7660682,23.0601477 L22.7660682,24.5158295 L20.2206136,24.5158295 L20.2206136,23.0124205 C19.7974318,23.1643523 19.3487955,23.2287841 18.9001591,23.2033295 L18.5899318,23.2033295 L18.5899318,24.5158295 L15.4876591,24.5158295 L14.6922045,23.6487841 L13.89675,24.5158295 L8.86947727,24.5158295 L8.86947727,18.9476477 L14.0081136,18.9476477 L14.7399318,19.7987841 L15.5353864,18.9476477 L18.97175,18.9476477 C19.4434545,18.907875 19.9151591,19.0224205 20.3160682,19.2737841 L20.3160682,18.9476477 L23.3865227,18.9476477 C23.8375455,18.9381023 24.283,19.0502614 24.6751591,19.2737841 L24.6751591,18.9476477 L29.3365227,18.9476477 L29.3365227,19.2737841 C29.6682273,19.0399205 30.0691364,18.925375 30.4740227,18.9476477 L33.0831136,18.9476477 L33.0831136,19.2737841 C33.4355,19.0399205 33.8539091,18.925375 34.2762955,18.9476477 L36.03425,18.9476477 L36.03425,0.421511364 L2.13197727,0.421511364 L2.13197727,14.7396932 L3.28538636,12.0987841 L5.76720455,12.0987841 L6.09334091,12.7590114 L6.09334091,12.0908295 L9.00470455,12.0908295 L9.64106818,13.5306023 L10.2615227,12.0908295 L19.5126591,12.0908295 C19.8984545,12.065375 20.2802727,12.1815114 20.5865227,12.4169659 L20.5865227,12.0908295 L23.1240227,12.0908295 L23.1240227,12.4169659 C23.6187955,12.1775341 24.1652727,12.065375 24.7149318,12.0908295 L28.3819773,12.0908295 L28.7240227,12.7510568 L28.7240227,12.0908295 L31.4444773,12.0908295 L31.8183409,12.7271932 L31.8183409,12.0908295 L34.4672045,12.0908295 L34.4672045,17.6590114 L31.7785682,17.6590114 L31.2694773,16.8158295 L31.2694773,17.6590114 L27.9365227,17.6590114 L27.5706136,16.7681023 L26.7751591,16.7681023 L26.40925,17.6590114 L24.65925,17.6590114 C24.1318636,17.6725341 23.6100455,17.5548068 23.1399318,17.3169659 L23.1399318,17.6590114 L18.9956136,17.6590114 L18.9956136,16.3862841 C18.9956136,16.2033295 18.9956136,16.195375 18.8603864,16.195375 L18.70925,16.195375 L18.70925,17.6510568 L10.7547045,17.6510568 L10.7547045,16.9669659 L10.4683409,17.6590114 L8.80584091,17.6590114 L8.51947727,16.9749205 L8.51947727,17.6510568 L5.33765909,17.6510568 L4.97175,16.7601477 L4.17629545,16.7601477 L3.81038636,17.6510568 L2.13197727,17.6510568 L2.13197727,34.4431023 L36.03425,34.4431023 L36.03425,24.2533295 C35.5911818,24.437875 35.1139091,24.5245795 34.63425,24.507875 L32.1683409,24.507875 Z" id="Fill-6"></path>
                        <path d="M23.6331136,21.3816591 C23.48675,21.4524545 23.3252727,21.4826818 23.1637955,21.4691591 L22.0024318,21.4691591 L22.0024318,20.5623409 L23.1797045,20.5623409 C23.3348182,20.5488182 23.4899318,20.5726818 23.6331136,20.6339318 C23.7643636,20.7031364 23.8423182,20.8439318 23.8319773,20.9918864 C23.8407273,21.1462045 23.7643636,21.2925682 23.6331136,21.3737045 L23.6331136,21.3816591 Z M24.8819773,20.8168864 C24.9074318,20.4533636 24.7173182,20.1073409 24.39675,19.9339318 C24.0372045,19.7740455 23.6426591,19.7080227 23.2512955,19.7430227 L21.0478864,19.7430227 L21.0478864,23.7202955 L22.0024318,23.7202955 L22.0024318,22.2725682 L23.0285682,22.2725682 C23.3785682,22.2725682 23.5853864,22.2725682 23.7285682,22.4555227 C23.8709545,22.6941591 23.9250455,22.9765455 23.8797045,23.2509773 L23.8797045,23.7521136 L24.83425,23.7521136 L24.83425,22.9566591 C24.8628864,22.7045 24.8072045,22.4499545 24.6751591,22.2327955 C24.5526591,22.0800682 24.3903864,21.9647273 24.2058409,21.8987045 C24.6353864,21.71575 24.9058409,21.2838182 24.8819773,20.8168864 L24.8819773,20.8168864 Z" id="Fill-8"></path>
                        <path d="M36.2329545,22.4637159 C36.2528409,22.2004205 36.1804545,21.9387159 36.0261364,21.7239432 C36.0006818,21.6865568 35.97125,21.6515568 35.9386364,21.6205341 C35.6331818,21.377125 35.2457955,21.2609886 34.8568182,21.2943977 L34.3397727,21.2943977 C34.2156818,21.2959886 34.0931818,21.2800795 33.9738636,21.2466705 C33.8465909,21.202125 33.7630682,21.079625 33.7670455,20.9443977 C33.7598864,20.8298523 33.8139773,20.720875 33.9102273,20.6580341 C34.0279545,20.5959886 34.1607955,20.5713295 34.2920455,20.5864432 L36.0340909,20.5864432 L36.0340909,19.7353068 L34.1329545,19.7353068 C33.4854545,19.6382614 32.8825,20.0853068 32.7854545,20.7320114 C32.7767045,20.7948523 32.7719318,20.8576932 32.7727273,20.9205341 C32.7727273,22.1853068 33.8863636,22.1216705 34.7852273,22.1534886 C34.9029545,22.1455341 35.0206818,22.1757614 35.1193182,22.2409886 C35.1964773,22.3062159 35.2402273,22.4024659 35.2386364,22.5034886 C35.2378409,22.6037159 35.1940909,22.6991705 35.1193182,22.7659886 C35.0063636,22.8455341 34.8671591,22.8797386 34.7295455,22.8614432 L32.9,22.8614432 L32.9,23.7125795 L34.7375,23.7125795 C35.2267045,23.7666705 35.7119318,23.5765568 36.0340909,23.2034886 C36.1756818,22.9831477 36.2456818,22.724625 36.2329545,22.4637159" id="Fill-10"></path>
                        <path d="M18.9873409,21.6045455 L17.7464318,21.6045455 L17.7464318,20.5625 L18.9873409,20.5625 C19.3293864,20.5625 19.5759773,20.6977273 19.5759773,21.0477273 C19.5759773,21.3977273 19.3452955,21.5806818 18.9793864,21.5806818 L18.9873409,21.6045455 Z M16.7998409,23.3863636 L15.3362045,21.7954545 L16.7998409,20.2045455 L16.7998409,23.3863636 Z M13.0214318,22.9170455 L10.6827955,22.9170455 L10.6827955,22.1215909 L12.7748409,22.1215909 L12.7748409,21.3261364 L10.6827955,21.3261364 L10.6827955,20.6022727 L13.0691591,20.6022727 L14.10325,21.7636364 L13.0214318,22.9170455 Z M18.9873409,19.7352273 L15.9487045,19.7352273 L14.7396136,21.0477273 L13.5225682,19.7352273 L9.73620455,19.7352273 L9.73620455,23.7125 L13.5225682,23.7125 L14.7396136,22.3920455 L15.9089318,23.7204545 L17.7543864,23.7204545 L17.7543864,22.3920455 L18.9396136,22.3920455 C19.7350682,22.3920455 20.6021136,22.1613636 20.6021136,21.0556818 C20.6021136,19.95 19.7509773,19.7352273 18.9873409,19.7352273 L18.9873409,19.7352273 Z" id="Fill-12"></path>
                        <path d="M27.1567386,13.5544659 L27.8408295,15.1135568 L26.4965114,15.1135568 L27.1567386,13.5544659 Z M24.770375,13.7294659 L25.6692386,13.7294659 L25.6692386,12.8783295 L24.7544659,12.8783295 C24.2294659,12.8290114 23.7068523,12.9952614 23.3067386,13.3396932 C22.9265114,13.7779886 22.7419659,14.3531023 22.7976477,14.9306023 C22.6552614,15.8509432 23.2860568,16.7124205 24.2063977,16.8548068 C24.3559432,16.8786705 24.5086705,16.8810568 24.6590114,16.8635568 L25.7726477,16.8635568 L26.1226477,15.9726477 L28.1112841,15.9726477 L28.4771932,16.8635568 L30.4181023,16.8635568 L30.4181023,13.8726477 L32.2237841,16.8635568 L33.5760568,16.8635568 L33.5760568,12.8862841 L32.6135568,12.8862841 L32.6135568,15.6624205 L30.9431023,12.8862841 L29.495375,12.8862841 L29.495375,16.6567386 L27.9044659,12.8862841 L26.4567386,12.8862841 L25.1124205,16.020375 L24.6590114,16.020375 C24.420375,16.0410568 24.1833295,15.9670795 23.9987841,15.8135568 C23.7975341,15.5438977 23.7044659,15.2098068 23.7362841,14.8749205 C23.7132159,14.5495795 23.8094659,14.2274205 24.0067386,13.9681023 C24.2127614,13.7779886 24.4927614,13.6896932 24.770375,13.7294659 L24.770375,13.7294659 Z" id="Fill-14"></path>
                        <polygon id="Fill-16" points="16.3069773 13.7056023 16.3069773 12.8783295 13.1251591 12.8783295 13.1251591 16.8635568 16.3069773 16.8635568 16.3069773 16.0362841 14.0797045 16.0362841 14.0797045 15.2408295 16.2512955 15.2408295 16.2512955 14.4294659 14.0797045 14.4294659 14.0797045 13.7056023"></polygon>
                        <polygon id="Fill-18" points="21.35 16.8636364 22.3284091 16.8636364 22.3284091 12.8784091 21.35 12.8784091"></polygon>
                        <path d="M19.5521136,14.5169659 C19.4049545,14.5821932 19.2434773,14.6092386 19.0827955,14.5965114 L17.9214318,14.5965114 L17.9214318,13.7056023 L19.09075,13.7056023 C19.2458636,13.6944659 19.4009773,13.719125 19.5441591,13.7771932 C19.6730227,13.8456023 19.7509773,13.981625 19.7430227,14.1271932 C19.7565455,14.2823068 19.6833636,14.4326477 19.5521136,14.5169659 M20.8009773,13.9521932 C20.8280227,13.587875 20.6379091,13.2410568 20.31575,13.0692386 C19.9546136,12.9045795 19.5568864,12.8393523 19.1623409,12.8783295 L16.9748409,12.8783295 L16.9748409,16.8556023 L17.9214318,16.8556023 L17.9214318,15.4158295 L18.9475682,15.4158295 C19.2896136,15.4158295 19.5043864,15.4158295 19.6396136,15.582875 C19.7835909,15.8215114 19.8368864,16.1038977 19.79075,16.3783295 L19.79075,16.8794659 L20.7612045,16.8794659 L20.7612045,16.0840114 C20.7898409,15.8318523 20.7333636,15.5773068 20.6021136,15.3601477 C20.4788182,15.2090114 20.3165455,15.0936705 20.1327955,15.0260568 C20.5535909,14.8383295 20.8184773,14.4135568 20.8009773,13.9521932" id="Fill-20"></path>
                        <path d="M1.27256818,34.0215114 L1.12938636,34.0215114 C1.12143182,33.957875 1.12143182,33.8942386 1.12938636,33.8306023 C1.12938636,33.7749205 1.12938636,33.7271932 1.02597727,33.7271932 L0.795295455,33.7271932 L0.795295455,34.0215114 L0.668022727,34.0215114 L0.668022727,33.3056023 L1.00211364,33.3056023 C1.12143182,33.3056023 1.24870455,33.345375 1.24870455,33.5044659 C1.25188636,33.5681023 1.22165909,33.6277614 1.16915909,33.6635568 C1.21131818,33.6913977 1.23597727,33.7399205 1.23279545,33.7908295 L1.23279545,33.9181023 C1.22325,33.9356023 1.22325,33.9562841 1.23279545,33.9737841 L1.27256818,34.0215114 Z M1.12143182,33.5124205 C1.12143182,33.4249205 1.05779545,33.4169659 1.01006818,33.4169659 L0.795295455,33.4169659 L0.795295455,33.6158295 L0.994159091,33.6158295 C1.06575,33.6158295 1.12143182,33.6158295 1.12143182,33.5124205 L1.12143182,33.5124205 Z M1.71006818,33.6715114 C1.71006818,33.2324205 1.3545,32.8760568 0.914613636,32.8760568 C0.475522727,32.8760568 0.119159091,33.2324205 0.119159091,33.6715114 C0.119159091,34.1106023 0.475522727,34.4669659 0.914613636,34.4669659 C1.3545,34.4669659 1.71006818,34.1106023 1.71006818,33.6715114 L1.71006818,33.6715114 Z M1.59075,33.6715114 C1.59075,34.0318523 1.29881818,34.3237841 0.938477273,34.3237841 C0.578136364,34.3237841 0.286204545,34.0318523 0.286204545,33.6715114 C0.286204545,33.3111705 0.578136364,33.0192386 0.938477273,33.0192386 C1.29404545,33.0144659 1.58677273,33.3000341 1.59075,33.6556023 L1.59075,33.6715114 L1.59075,33.6715114 Z" id="Fill-21"></path>
                    </g>
                </g>
            </g>
        </g>
    </g>
</svg>