<svg width="1527" height="674" xmlns="http://www.w3.org/2000/svg"><g fill="#FFF" fill-rule="nonzero" fill-opacity=".081"><path d="M1231.689 641.255c-3.013-6.944-4.689-14.646-4.689-22.755 0-30.652 23.953-55.5 53.5-55.5 14.396 0 27.464 5.898 37.08 15.493C1327.755 554.64 1350.756 538 1377.5 538c26.487 0 49.301 16.321 59.622 39.805 9.546-9.188 22.33-14.805 36.378-14.805 29.547 0 53.5 24.848 53.5 55.5 0 3.674-.344 7.264-1 10.738-.129 24.743-20.227 44.762-45 44.762h-206c-20.605 0-37.975-13.848-43.311-32.745zM3.866 77.99A22.052 22.052 0 0 1 0 65.5C0 53.074 10.297 43 23 43c6.169 0 11.77 2.376 15.901 6.243C43.02 38.571 53.375 31 65.5 31c11.873 0 22.05 7.26 26.335 17.584C95.883 45.107 101.19 43 107 43c12.703 0 23 10.074 23 22.5a22.13 22.13 0 0 1-.46 4.5h.46c0 9.941-8.059 18-18 18H20c-7.072 0-13.191-4.078-16.134-10.01zM1172.47 34.738A18.44 18.44 0 0 1 1171 27.5c0-10.217 8.283-18.5 18.5-18.5 4.78 0 9.136 1.813 12.42 4.788C1205.47 5.67 1213.572 0 1223 0c9.427 0 17.529 5.671 21.08 13.788A18.432 18.432 0 0 1 1256.5 9c10.217 0 18.5 8.283 18.5 18.5a18.44 18.44 0 0 1-1.47 7.238C1271.87 41.214 1265.995 46 1259 46h-72c-6.994 0-12.87-4.786-14.53-11.262z"/></g></svg>