<?xml version="1.0" encoding="UTF-8"?>
<svg width="846px" height="444px" viewBox="0 0 846 444" version="1.1" xmlns="http://www.w3.org/2000/svg" xmlns:xlink="http://www.w3.org/1999/xlink">
    <!-- Generator: Sketch 52.5 (67469) - http://www.bohemiancoding.com/sketch -->
    <title>Group 2</title>
    <desc>Created with Sketch.</desc>
    <g id="Page-1" stroke="none" stroke-width="1" fill="none" fill-rule="evenodd" fill-opacity="0.0811254529">
        <g id="Artboard" transform="translate(-394.000000, -1182.000000)" fill="#FFFFFF" fill-rule="nonzero">
            <g id="Group-2" transform="translate(394.000000, 1182.000000)">
                <path d="M561.520794,24.0078264 C559.946227,22.1048119 559,19.6629075 559,17 C559,10.9248678 563.924868,6 570,6 C573.059417,6 575.827116,7.2489943 577.821015,9.26490177 C579.762107,3.86311318 584.929914,0 591,0 C596.589181,0 601.413387,3.27524753 603.658031,8.01115487 C605.450329,6.74430948 607.638243,6 610,6 C616.075132,6 621,10.9248678 621,17 C621,17.682993 620.937753,18.3514475 620.818624,19 L621,19 C621,23.9705627 616.970563,28 612,28 L569,28 C565.88296,28 563.136022,26.4154062 561.520794,24.0078264 Z" id="Combined-Shape-Copy-2"></path>
                <path d="M1.66406738,307.112965 C0.598934005,304.970355 0,302.555122 0,300 C0,291.163444 7.163444,284 16,284 C20.4423388,284 24.4618315,285.810419 27.3609133,288.733693 C30.2685982,281.280565 37.517628,276 46,276 C53.9841849,276 60.8756467,280.678503 64.0824676,287.443593 C66.8088266,285.287277 70.2540835,284 74,284 C82.836556,284 90,291.163444 90,300 C90,301.025388 89.9035433,302.028248 89.7192084,303 L90,303 C90,310.179702 84.1797017,316 77,316 L14,316 C8.25770607,316 3.38498587,312.276912 1.66406738,307.112965 Z" id="Combined-Shape-Copy-3"></path>
                <path d="M667.637262,427.878707 C664.692044,422.940249 663,417.167724 663,411 C663,392.774603 677.774603,378 696,378 C704.264329,378 711.819113,381.037925 717.608545,386.057969 C723.977459,371.867676 738.100423,362 754.5,362 C770.899577,362 785.022541,371.867676 791.391455,386.057969 C797.180887,381.037925 804.735671,378 813,378 C831.225397,378 846,392.774603 846,411 C846,414.228121 845.536487,417.347983 844.672386,420.296663 C842.605018,433.720912 831.002914,444 817,444 L693,444 C681.78274,444 672.106096,437.403838 667.637262,427.878707 Z" id="Combined-Shape-Copy"></path>
            </g>
        </g>
    </g>
</svg>