<svg width="407" height="589" xmlns="http://www.w3.org/2000/svg"><g fill="#FFF" fill-rule="nonzero" fill-opacity=".081"><path d="M2.55 279.878A18.414 18.414 0 0 1 0 270.5C0 260.283 8.283 252 18.5 252c4.765 0 9.11 1.802 12.389 4.76C34.369 248.66 42.289 243 51.5 243c8.975 0 16.723 5.372 20.334 13.141A18.423 18.423 0 0 1 83.5 252c10.217 0 18.5 8.283 18.5 18.5 0 3.422-.93 6.628-2.55 9.378C96.879 285.272 91.376 289 85 289H17c-6.375 0-11.878-3.728-14.45-9.122zM328.114 29.803A13.942 13.942 0 0 1 325 21c0-7.732 6.268-14 14-14 3.605 0 6.891 1.362 9.372 3.6C350.973 4.366 356.992 0 364 0c7.009 0 13.027 4.366 15.628 10.6A13.948 13.948 0 0 1 389 7c7.732 0 14 6.268 14 14 0 3.335-1.166 6.398-3.114 8.803A11.987 11.987 0 0 1 390 35h-52a11.987 11.987 0 0 1-9.886-5.197zM332.114 467.803A13.942 13.942 0 0 1 329 459c0-7.732 6.268-14 14-14 3.605 0 6.891 1.362 9.372 3.6 2.601-6.234 8.62-10.6 15.628-10.6 7.009 0 13.027 4.366 15.628 10.6A13.948 13.948 0 0 1 393 445c7.732 0 14 6.268 14 14 0 3.335-1.166 6.398-3.114 8.803A11.987 11.987 0 0 1 394 473h-52a11.987 11.987 0 0 1-9.886-5.197zM14.672 575.028A22.435 22.435 0 0 1 13 566.5c0-12.426 10.074-22.5 22.5-22.5 5.7 0 10.905 2.12 14.87 5.613C54.653 539.824 64.293 533 75.5 533s20.846 6.824 25.13 16.613A22.415 22.415 0 0 1 115.5 544c12.426 0 22.5 10.074 22.5 22.5 0 3.018-.594 5.898-1.672 8.528C134.123 583.081 126.753 589 118 589H33c-8.753 0-16.123-5.919-18.328-13.972z"/></g></svg>