<?xml version="1.0" encoding="UTF-8"?>
<svg width="88px" height="15px" viewBox="0 0 88 15" version="1.1" xmlns="http://www.w3.org/2000/svg" xmlns:xlink="http://www.w3.org/1999/xlink">
    <!-- Generator: Sketch 54 (76480) - https://sketchapp.com -->
    <title>star fill</title>
    <desc>Created with Sketch.</desc>
    <defs>
        <polygon id="path-1" points="8 12 3.29771798 14.472136 4.19577393 9.23606798 0.39154787 5.52786405 5.64885899 4.76393202 8 0 10.351141 4.76393202 15.6084521 5.52786405 11.8042261 9.23606798 12.702282 14.472136"></polygon>
        <polygon id="path-3" points="8 12 3.29771798 14.472136 4.19577393 9.23606798 0.39154787 5.52786405 5.64885899 4.76393202 8 0 10.351141 4.76393202 15.6084521 5.52786405 11.8042261 9.23606798 12.702282 14.472136"></polygon>
        <polygon id="path-5" points="8 12 3.29771798 14.472136 4.19577393 9.23606798 0.39154787 5.52786405 5.64885899 4.76393202 8 0 10.351141 4.76393202 15.6084521 5.52786405 11.8042261 9.23606798 12.702282 14.472136"></polygon>
        <polygon id="path-7" points="8 12 3.29771798 14.472136 4.19577393 9.23606798 0.39154787 5.52786405 5.64885899 4.76393202 8 0 10.351141 4.76393202 15.6084521 5.52786405 11.8042261 9.23606798 12.702282 14.472136"></polygon>
        <polygon id="path-9" points="8 12 3.29771798 14.472136 4.19577393 9.23606798 0.39154787 5.52786405 5.64885899 4.76393202 8 0 10.351141 4.76393202 15.6084521 5.52786405 11.8042261 9.23606798 12.702282 14.472136"></polygon>
    </defs>
    <g id="Page-1" stroke="none" stroke-width="1" fill="none" fill-rule="evenodd">
        <g id="Artboard" transform="translate(-2.000000, -23.000000)">
            <g id="star-fill" transform="translate(2.000000, 23.000000)">
                <g id="icon/star/fill">
                    <mask id="mask-2" fill="white">
                        <use xlink:href="#path-1"></use>
                    </mask>
                    <g id="Star/fill" fill-rule="nonzero"></g>
                    <g id="color/yellow" mask="url(#mask-2)" fill="#FFD30B" fill-rule="nonzero">
                        <rect id="Rectangle" x="0" y="0" width="16" height="16"></rect>
                    </g>
                </g>
                <g id="icon/star/fill" transform="translate(18.000000, 0.000000)">
                    <mask id="mask-4" fill="white">
                        <use xlink:href="#path-3"></use>
                    </mask>
                    <g id="Star/fill" fill-rule="nonzero"></g>
                    <g id="color/yellow" mask="url(#mask-4)" fill="#FFD30B" fill-rule="nonzero">
                        <rect id="Rectangle" x="0" y="0" width="16" height="16"></rect>
                    </g>
                </g>
                <g id="icon/star/fill" transform="translate(36.000000, 0.000000)">
                    <mask id="mask-6" fill="white">
                        <use xlink:href="#path-5"></use>
                    </mask>
                    <g id="Star/fill" fill-rule="nonzero"></g>
                    <g id="color/yellow" mask="url(#mask-6)" fill="#FFD30B" fill-rule="nonzero">
                        <rect id="Rectangle" x="0" y="0" width="16" height="16"></rect>
                    </g>
                </g>
                <g id="icon/star/fill" transform="translate(54.000000, 0.000000)">
                    <mask id="mask-8" fill="white">
                        <use xlink:href="#path-7"></use>
                    </mask>
                    <g id="Star/fill" fill-rule="nonzero"></g>
                    <g id="color/yellow" mask="url(#mask-8)" fill="#FFD30B" fill-rule="nonzero">
                        <rect id="Rectangle" x="0" y="0" width="16" height="16"></rect>
                    </g>
                </g>
                <g id="icon/star/fill" transform="translate(72.000000, 0.000000)">
                    <mask id="mask-10" fill="white">
                        <use xlink:href="#path-9"></use>
                    </mask>
                    <g id="Star/fill" fill-rule="nonzero"></g>
                    <g id="color/yellow" mask="url(#mask-10)" fill="#FFD30B" fill-rule="nonzero">
                        <rect id="Rectangle" x="0" y="0" width="16" height="16"></rect>
                    </g>
                </g>
            </g>
        </g>
    </g>
</svg>