<?xml version="1.0" encoding="UTF-8"?>
<svg width="26px" height="26px" viewBox="0 0 26 26" version="1.1" xmlns="http://www.w3.org/2000/svg" xmlns:xlink="http://www.w3.org/1999/xlink">
    <!-- Generator: Sketch 52.3 (67297) - http://www.bohemiancoding.com/sketch -->
    <title>stra_sj</title>
    <desc>Created with Sketch.</desc>
    <g id="Page-1" stroke="none" stroke-width="1" fill="none" fill-rule="evenodd">
        <g id="3_screens_3" transform="translate(-443.000000, -1504.000000)">
            <g id="Group-17" transform="translate(0.000000, 574.000000)">
                <g id="Group-15" transform="translate(0.000000, 558.000000)">
                    <g id="Group-8" transform="translate(195.000000, 222.000000)">
                        <g id="Group-14" transform="translate(0.000000, 78.000000)">
                            <g id="Group-20">
                                <g id="Group-2" transform="translate(248.000000, 72.000000)">
                                    <g id="stra_sj">
                                        <circle id="Oval" fill="#EF6A23" cx="13" cy="13" r="13"></circle>
                                        <path d="M13,17.7212356 L9.06579246,19.9655868 C8.58607726,20.2392504 7.97534306,20.0722126 7.70167946,19.5924974 C7.58099656,19.3809478 7.54166643,19.1326271 7.59107027,18.8941384 L8.50983813,14.458942 L5.15959629,11.410831 C4.75108659,11.0391614 4.72122176,10.4067012 5.09289133,9.99819145 C5.25679388,9.81804277 5.4808072,9.70390228 5.72289005,9.67719107 L10.2249274,9.18044018 L12.0885716,5.05225273 C12.3158139,4.5488847 12.9080906,4.32504059 13.4114586,4.55228292 C13.6334389,4.6524945 13.8112169,4.83027248 13.9114284,5.05225273 L15.7750726,9.18044018 L20.27711,9.67719107 C20.8260631,9.73776209 21.2219751,10.2318791 21.1614041,10.7808323 C21.1346929,11.0229151 21.0205524,11.2469284 20.8404037,11.410831 L17.4901619,14.458942 L18.4089297,18.8941384 C18.5209591,19.4349414 18.1733695,19.9641666 17.6325665,20.076196 C17.3940778,20.1255998 17.1457571,20.0862697 16.9342075,19.9655868 L13,17.7212356 Z" id="Star" fill="#FFFFFF"></path>
                                    </g>
                                </g>
                            </g>
                        </g>
                    </g>
                </g>
            </g>
        </g>
    </g>
</svg>