<?xml version="1.0" encoding="UTF-8" standalone="no"?>
<svg width="54px" height="35px" viewBox="0 0 54 35" version="1.1" xmlns="http://www.w3.org/2000/svg" xmlns:xlink="http://www.w3.org/1999/xlink">
    <!-- Generator: Sketch 46.2 (44496) - http://www.bohemiancoding.com/sketch -->
    <title>visa</title>
    <desc>Created with Sketch.</desc>
    <defs></defs>
    <g id="Page-1" stroke="none" stroke-width="1" fill="none" fill-rule="evenodd" opacity="0.5">
        <g id="LP_dissertation" transform="translate(-598.000000, -4353.000000)">
            <g id="9" transform="translate(0.000000, 4021.000000)">
                <g id="Group-6" transform="translate(308.000000, 332.000000)">
                    <g id="visa" transform="translate(290.000000, 0.000000)">
                        <polygon id="Stroke-22" stroke="#FFFFFF" stroke-width="0.42" points="0.213888889 34.3097222 52.85 34.3097222 52.85 0.875 0.213888889 0.875"></polygon>
                        <polygon id="Fill-23" fill="#FFFFFF" points="1.08888889 33.2694444 51.975 33.2694444 51.975 28.7097222 1.08888889 28.7097222"></polygon>
                        <polygon id="Fill-24" fill="#FFFFFF" points="1.08888889 6.13472222 51.975 6.13472222 51.975 1.575 1.08888889 1.575"></polygon>
                        <path d="M26.1039722,11.1610139 L23.4206389,23.7026806 L20.1734167,23.7026806 L22.85675,11.1610139 L26.1039722,11.1610139 Z M39.7150833,19.259625 L41.4456389,14.5832361 L42.4178611,19.2887917 L39.7150833,19.259625 Z M43.3414722,23.7026806 L46.3368889,23.7026806 L43.7498056,11.1707361 L40.9789722,11.1707361 C40.3761944,11.1649028 39.8288333,11.5265694 39.5984167,12.084625 L34.7373056,23.7512917 L38.1507778,23.7512917 L38.8206389,21.8749028 L42.98175,21.8749028 L43.3414722,23.7026806 Z M34.8928611,19.6193472 C34.8928611,16.3137917 30.3234167,16.1290694 30.3525833,14.6512917 C30.3525833,14.2040694 30.7900833,13.6790694 31.7234167,13.6012917 C32.8210556,13.4982361 33.9264722,13.6926806 34.9220278,14.1651806 L35.4859167,11.5012917 C34.5156389,11.1386528 33.4889722,10.9510139 32.4525833,10.947125 C29.24425,10.947125 26.9886944,12.6485139 26.9702222,15.0887917 C26.9702222,16.897125 28.5831389,17.8985139 29.8091111,18.5012917 C31.0331389,19.1040694 31.4998056,19.4735139 31.4900833,20.0568472 C31.4900833,20.8929583 30.5178611,21.272125 29.5456389,21.2818472 C28.3848056,21.3080972 27.2356389,21.0329583 26.2109167,20.484625 L25.6178611,23.2360139 C26.7689722,23.6793472 27.9920278,23.9039306 29.2248056,23.897125 C32.6373056,23.897125 34.8636944,22.2151806 34.8743889,19.609625 L34.8928611,19.6193472 Z M21.45675,11.1707361 L16.198,23.7124028 L12.7650833,23.7124028 L10.1789722,13.7082361 C10.1313333,13.2337917 9.84063889,12.8176806 9.41091667,12.609625 C8.393,12.1215694 7.31966667,11.7628194 6.21230556,11.5401806 L6.29008333,11.1804583 L11.8123056,11.1804583 C12.5560556,11.1804583 13.1909167,11.7200417 13.3095278,12.4540694 L14.6803611,19.7068472 L18.0539722,11.1707361 L21.45675,11.1707361 Z" id="Fill-25" fill="#FFFFFF"></path>
                    </g>
                </g>
            </g>
        </g>
    </g>
</svg>