<?xml version="1.0" encoding="UTF-8"?>
<svg width="512px" height="512px" viewBox="0 0 512 512" version="1.1" xmlns="http://www.w3.org/2000/svg" xmlns:xlink="http://www.w3.org/1999/xlink">
    <!-- Generator: Sketch 56.3 (81716) - https://sketch.com -->
    <title>2</title>
    <desc>Created with Sketch.</desc>
    <g id="2" stroke="none" stroke-width="1" fill="none" fill-rule="evenodd">
        <g id="Group-1109">
            <polygon id="Fill-1" fill="#252422" points="0 511.453502 511.453502 511.453502 511.453502 -1.13686838e-13 0 -1.13686838e-13"></polygon>
            <g id="Group-1108" transform="translate(105.137968, 12.595748)">
                <path d="M197.59909,124.55476 C188.000322,124.55476 178.929982,128.686901 170.717721,135.986871 C160.311252,122.289366 147.77793,114.248501 134.28632,114.248501 C98.2371388,114.248501 68.9967367,171.358131 68.9967367,241.842735 C68.9967367,259.448963 52.9182939,293.035616 56.2164501,308.277336 C58.6904779,319.726422 54.7959923,331.165105 60.4559196,339.691137 C73.3802233,359.160279 113.373721,371.426923 133.657135,371.426923 C143.239475,371.426923 152.972403,365.242401 161.184664,357.975286 C171.574157,371.67334 184.107479,379.697776 197.59909,379.697776 C221.165327,379.697776 260.380146,362.666521 270.168929,342.226495 C272.942491,336.435693 269.112074,321.519244 265.058786,315.946384 C257.095132,304.996155 262.888125,268.823766 262.888125,252.132566 C262.888125,181.66439 233.64827,124.55476 197.59909,124.55476" id="Fill-4" fill="#AA8D6B"></path>
                <polygon id="Fill-6" fill="#FFE9BA" points="203.782462 417.992474 123.056763 417.992474 123.056763 321.449535 123.056763 250.356555 203.782462 250.356555"></polygon>
                <path d="M128.23886,329.014924 C45.9788047,365.076699 34.3840582,376.018714 24.6314165,384.654812 C9.59942503,397.952575 0.176434652,453.868451 0.176434652,498.399309 L165.513008,498.399309 L326.59916,498.368643 C328.059044,452.82419 314.510484,395.260605 299.479588,381.962842 C289.729684,373.326744 285.813842,365.572819 203.551596,329.505567 L128.23886,329.014924 Z" id="Fill-8" fill="#FFE9BA"></path>
                <path d="M123.056818,279.400207 C123.056818,279.400207 166.961229,318.005007 178.459051,320.560079 C189.956326,323.11515 203.782516,320.249046 203.782516,310.887386 C203.782516,301.525726 203.826871,265.626586 203.826871,265.626586 L123.056818,267.269366 L123.056818,279.400207 Z" id="Fill-10" fill="#D3BD98"></path>
                <path d="M256.748287,180.514936 C256.748287,246.627005 214.791119,286.754115 165.164903,296.730175 C115.538139,289.823925 73.5809711,246.627005 73.5809711,180.514936 C73.5809711,114.402868 113.506567,60.8087889 168.322875,60.8087889 C223.138635,60.8087889 256.748287,114.402868 256.748287,180.514936" id="Fill-14" fill="#FFE9BA"></path>
                <path d="M273.353624,258.033927 C272.859147,267.851732 272.363575,268.922825 276.785393,276.632395 C281.205021,284.436151 286.349662,287.287471 281.433915,296.077443 C276.505025,304.831274 268.438972,305.895249 268.933996,313.629461 C269.429021,321.433217 278.267729,325.012288 276.785393,335.382068 C275.432289,344.76837 261.365158,354.594936 258.708781,356.304524 C260.853705,354.655172 269.924045,347.092357 268.6372,337.54342 C267.152674,326.679711 265.998895,326.152378 255.212944,319.999617 C244.361282,313.758693 242.778736,311.072199 245.780097,302.282774 C248.715198,293.441876 258.577359,292.698243 251.139943,283.399009 C243.768785,274.082252 239.498103,267.713739 241.42618,262.018218 C243.437491,256.304626 240.139883,252.113345 248.848811,241.147236 C254.289701,234.483022 248.268362,219.250064 248.268362,212.516853 C248.268362,205.750239 262.271973,173.400601 248.056443,159.14893 C245.482753,156.59112 241.128837,150.748844 235.852225,143.989349 C231.564567,138.449345 226.632939,132.210064 221.701859,126.730295 C216.557765,121.105413 211.988644,112.62757 208.772627,105.262984 C205.574681,98.0730798 203.496015,92.0752873 203.000443,90.7282071 C203.132961,92.2998006 204.056204,99.2750477 204.716601,104.761935 C204.914283,106.775985 205.145367,108.56552 205.212174,109.912601 C206.134869,123.43871 213.984623,130.792344 216.4247,132.815702 C212.846176,130.620947 198.136169,121.105413 192.21504,112.705328 C189.774415,109.247274 187.993093,105.885597 186.77415,102.663009 C181.1991,88.4803354 185.355335,76.9261108 186.047493,75.119052 C184.926569,76.9261108 177.125551,90.0535718 168.434146,98.6611953 C167.775391,99.3440445 167.066257,99.9316124 166.356576,100.622128 C156.98944,109.092853 140.711673,119.367351 138.551964,120.734145 C139.855784,119.454419 148.05107,111.512669 153.757543,99.5691055 C154.483652,98.2981407 155.076148,96.9581793 155.636884,95.5245793 C157.484465,90.8749621 164.987044,66.5629022 164.987044,66.5629022 C161.145675,73.3913942 154.713093,86.3721001 145.98938,99.0592958 C140.201864,107.597375 133.340516,116.006222 125.706514,122.52149 C122.852456,124.924879 118.993016,128.235082 114.705359,132.063309 C99.2029844,145.80517 77.6984368,166.49435 75.7681694,177.841037 C73.3445202,192.299698 80.2047726,223.905704 84.6260432,236.79989 C89.1283576,249.771835 89.5719084,253.920404 84.6260432,259.071069 C79.709748,264.263899 67.4075106,273.554372 69.4204646,278.203989 C71.3321138,282.880438 78.7859576,290.590556 77.269671,296.811766 C75.7681694,303.043381 60.1940603,316.427116 60.291532,325.071428 C60.4558101,339.69163 72.8478528,352.296139 75.3394036,353.695788 C72.766809,352.81471 46.429748,342.511736 49.6961437,326.835227 C51.8388774,316.628083 50.1906207,314.978184 44.7650635,307.174975 C39.3389587,299.440216 31.4897523,286.466081 38.8439341,278.740631 C46.2660175,270.936874 56.555301,262.14745 54.1321994,253.38431 C51.6258635,244.603647 25.2548518,183.744096 25.2548518,162.20724 C25.2548518,155.839274 26.3440154,144.144866 28.9160625,130.118256 C30.9120411,119.013606 33.9298293,106.335719 38.117825,93.7175204 C46.4960068,69.0352873 59.3436475,44.4209557 78.8538593,31.1461921 C120.709175,2.71403807 150.195994,-1.70230417 164.987044,1.8926477 C179.715121,5.49636107 194.788182,-0.838201497 198.712785,0.813340749 C202.637389,2.47145412 240.436679,19.220699 254.718467,36.2453835 C265.702099,49.469221 292.995258,81.6447247 304.853397,119.013606 C308.431921,130.033379 310.575203,141.509846 310.575203,153.06407 C310.575203,154.334487 310.575203,155.59669 310.493611,156.892297 C308.712289,205.972562 273.848101,248.431873 273.353624,258.033927" id="Fill-16" fill="#EBCC8F"></path>
                <path d="M280.461608,498.69249 C291.701514,450.504255 303.043819,387.724293 303.475871,379.525175 C292.799439,373.090403 263.313167,354.99353 251.528953,349.558116 C251.528953,349.558116 181.927618,487.164003 157.921663,485.802685 C146.087618,485.131883 119.057304,441.47608 100.359721,402.885517 C100.393672,402.869637 77.0590665,349.858197 77.0278537,349.801247 C64.487413,355.614501 30.8963799,373.233872 19.8212997,379.521889 C21.3934409,391.11335 31.6553446,452.694629 43.2867799,498.69249 L280.461608,498.69249 Z" id="Fill-18" fill="#F7F7F7"></path>
                <path d="M123.056818,302.641667 C123.056818,302.641667 164.854636,325.0596 203.784707,305.625504 C203.784707,305.625504 205.289494,329.014869 216.279697,335.139156 C216.279697,335.139156 167.972086,356.006852 114.118996,335.26784 C114.118996,335.26784 123.711192,318.95448 123.056818,302.641667" id="Fill-1106" fill="#F7F7F7"></path>
            </g>
        </g>
    </g>
</svg>