<?xml version="1.0" encoding="UTF-8" standalone="no"?>
<svg width="38px" height="45px" viewBox="0 0 38 45" version="1.1" xmlns="http://www.w3.org/2000/svg" xmlns:xlink="http://www.w3.org/1999/xlink">
    <!-- Generator: sketchtool 46 (44423) - http://www.bohemiancoding.com/sketch -->
    <title>96909CC3-70B4-453D-8FEB-633BB4D1C773</title>
    <desc>Created with sketchtool.</desc>
    <defs></defs>
    <g id="Page-1" stroke="none" stroke-width="1" fill="none" fill-rule="evenodd">
        <g id="LP1" transform="translate(-604.000000, -2116.000000)" fill="#FFFFFF">
            <g id="5" transform="translate(0.000000, 1982.000000)">
                <g id="3" transform="translate(543.000000, 106.000000)">
                    <g transform="translate(30.000000, 0.000000)">
                        <g transform="translate(31.000000, 28.000000)">
                            <path d="M1.61413043,43.1248207 L35.4624457,43.1248207 L35.4624457,15.8396576 L1.61413043,15.8396576 L1.61413043,43.1248207 Z M6.76858696,14.2255272 L6.76858696,13.2277011 C7.12222826,6.91645109 12.4782065,1.61427717 18.5380435,1.61427717 C24.6184239,1.61427717 29.9900543,6.95166848 30.3109239,13.2903098 L30.3109239,14.2255272 L26.7476087,14.2255272 L26.7471196,13.3431359 C26.4521739,8.91454891 22.6936957,5.17367935 18.5380435,5.17367935 C14.4024457,5.17367935 10.6449457,8.89840761 10.3323913,13.3299293 L10.3323913,14.2255272 L6.76858696,14.2255272 Z M11.9245109,13.3685707 C11.9430978,9.73971196 14.910163,6.78780978 18.5380435,6.78780978 C22.1654348,6.78780978 25.1320109,9.73971196 25.1505978,13.3671033 L25.1520652,14.2255272 L11.9230435,14.2255272 L11.9245109,13.3685707 Z M31.9411957,14.2255272 L31.9407065,13.3617228 C31.9177174,5.99395109 25.9058152,0.00014673913 18.5380435,0.00014673913 C11.1702717,0.00014673913 5.15788043,5.99395109 5.13586957,13.3627011 L5.13538043,14.2255272 L0,14.2255272 L0,44.7394402 L37.0770652,44.7394402 L37.0770652,14.2255272 L31.9411957,14.2255272 Z" id="Fill-1"></path>
                            <path d="M27.8011467,29.6513804 C27.8011467,34.5373043 23.8264728,38.5119783 18.9405489,38.5119783 C14.0541359,38.5119783 10.0784837,34.5373043 10.0784837,29.6513804 C10.0784837,24.7649674 14.0541359,20.7898043 18.9405489,20.7898043 C23.8264728,20.7898043 27.8011467,24.7649674 27.8011467,29.6513804 M18.9405489,19.0196413 C13.0778315,19.0196413 8.30832065,23.7891522 8.30832065,29.6513804 C8.30832065,35.5131196 13.0778315,40.2826304 18.9405489,40.2826304 C24.802288,40.2826304 29.5717989,35.5131196 29.5717989,29.6513804 C29.5717989,23.7891522 24.802288,19.0196413 18.9405489,19.0196413" id="Fill-3"></path>
                            <path d="M17.5599783,27.6160598 C17.5599783,27.1685054 17.8872065,26.9180707 18.2726413,26.810462 L18.2726413,28.2866576 C17.6920435,28.070462 17.5599783,27.8581793 17.5599783,27.6160598 M20.5994348,31.6098098 C20.5994348,31.9487772 20.3851957,32.3317663 19.8114457,32.4970924 L19.8114457,30.7934511 C20.3851957,31.0140489 20.5994348,31.2478533 20.5994348,31.6098098 M19.8114457,28.7214946 L19.8114457,26.8843207 C20.2893261,27.0271467 20.7104674,27.2810054 21.0430761,27.6312228 L21.2949783,27.8963315 L22.4473696,26.4494837 L22.2507391,26.2489402 C21.6041087,25.5886141 20.783837,25.1806793 19.8114457,25.0334511 L19.8114457,23.8135598 L18.2726413,23.8135598 L18.2726413,25.0163315 C16.69275,25.2408424 15.6142174,26.3144837 15.6142174,27.7055707 C15.6142174,29.5319837 17.228837,30.0793207 18.2726413,30.3556793 L18.2726413,32.5014946 C17.4494348,32.3033967 16.8976957,31.8103533 16.62525,31.5105163 L16.3650326,31.2233967 L15.2556848,32.7220924 L15.4283478,32.9152989 C16.1331848,33.703288 17.1119348,34.1889946 18.2726413,34.3283967 L18.2726413,35.4886141 L19.8114457,35.4886141 L19.8114457,34.3112772 C21.8105217,34.0402989 22.5329674,32.7000815 22.5329674,31.4953533 C22.5329674,29.5921467 20.9251957,29.0301359 19.8114457,28.7214946" id="Fill-4"></path>
                        </g>
                    </g>
                </g>
            </g>
        </g>
    </g>
</svg>