<?xml version="1.0" encoding="UTF-8" standalone="no"?>
<svg width="54px" height="35px" viewBox="0 0 54 35" version="1.1" xmlns="http://www.w3.org/2000/svg" xmlns:xlink="http://www.w3.org/1999/xlink">
    <!-- Generator: Sketch 46.2 (44496) - http://www.bohemiancoding.com/sketch -->
    <title>discover</title>
    <desc>Created with Sketch.</desc>
    <defs></defs>
    <g id="Page-1" stroke="none" stroke-width="1" fill="none" fill-rule="evenodd" opacity="0.5">
        <g id="LP_dissertation" transform="translate(-681.000000, -4353.000000)" fill="#FFFFFF">
            <g id="9" transform="translate(0.000000, 4021.000000)">
                <g id="Group-6" transform="translate(308.000000, 332.000000)">
                    <g id="discover" transform="translate(373.000000, 0.000000)">
                        <path d="M53.4724167,19.1917639 C53.4724167,19.1917639 39.0251944,29.390375 12.5613056,33.9500972 L53.4724167,33.9500972 L53.4724167,19.1917639 Z" id="Fill-26"></path>
                        <path d="M53.4135972,0.651194444 L53.4135972,33.9498056 L0.972902778,33.9498056 L0.972902778,0.660916667 L53.4135972,0.651194444 Z M53.6080417,0.262305556 L0.544152778,0.262305556 L0.544152778,34.2900833 L53.8024861,34.2900833 L53.8024861,0.262305556 L53.6080417,0.262305556 Z" id="Fill-27"></path>
                        <path d="M6.9615,16.5276806 C6.38011111,16.993375 5.64122222,17.2130972 4.90038889,17.1401806 L4.49205556,17.1401806 L4.49205556,11.997125 L4.8615,11.997125 C5.60427778,11.9203194 6.34608333,12.1449028 6.92261111,12.6193472 C7.46511111,13.1190694 7.76844444,13.8268472 7.75775,14.5637917 C7.77816667,15.3007361 7.48941667,16.013375 6.9615,16.5276806 L6.9615,16.5276806 Z M5.20080556,10.6943472 L2.99483333,10.6943472 L2.99483333,18.4040694 L5.19205556,18.4040694 C6.18761111,18.4585139 7.16955556,18.139625 7.94344444,17.509625 C9.55636111,16.0911528 9.71386111,13.6343472 8.29538889,12.0214306 C7.51663889,11.1357361 6.37913889,10.6515694 5.20080556,10.7040694 L5.20080556,10.6943472 Z" id="Fill-28"></path>
                        <polygon id="Fill-29" points="10.0333333 18.4041667 11.54125 18.4041667 11.54125 10.6944444 10.0333333 10.6944444"></polygon>
                        <path d="M15.2148889,13.6110139 C14.3107222,13.2804583 14.0491944,13.0568472 14.0491944,12.6387917 C14.0491944,12.2207361 14.5246111,11.7832361 15.1662778,11.7832361 C15.6455833,11.7919861 16.0937778,12.0224028 16.3815556,12.4054583 L17.1700278,11.3749028 C16.5458611,10.8197639 15.7389167,10.5154583 14.90475,10.5193472 C13.6554444,10.4444861 12.5821111,11.3953194 12.5062778,12.6436528 C12.5043333,12.6718472 12.5033611,12.6990694 12.5023889,12.7262917 C12.5023889,13.7860139 12.9885,14.3304583 14.3982222,14.8360139 C14.7579444,14.9487917 15.1069722,15.0955972 15.4385,15.2735139 C15.7116944,15.4485139 15.8798889,15.7469861 15.8857222,16.0707361 C15.8828056,16.6774028 15.3869722,17.1664306 14.7803056,17.1615694 C14.7598889,17.1615694 14.7394722,17.1605972 14.7190556,17.159625 C14.0161389,17.1712917 13.3715556,16.7678194 13.0769722,16.1290694 L12.10475,17.1012917 C12.6589167,18.0385139 13.6787778,18.6014306 14.7676667,18.5693472 C16.1394722,18.6607361 17.3255833,17.623375 17.4169722,16.2515694 C17.4218333,16.1815694 17.4228056,16.1115694 17.4228056,16.0415694 C17.4315556,14.8262917 16.9269722,14.272125 15.2148889,13.6110139" id="Fill-30"></path>
                        <path d="M17.9084306,14.5832361 C17.8919028,16.7901806 19.6681528,18.5926806 21.874125,18.6092083 C21.9062083,18.6092083 21.9392639,18.6092083 21.9723194,18.6082361 C22.6275972,18.6092083 23.274125,18.4565694 23.8584306,18.1610139 L23.8584306,16.3526806 C23.4034306,16.8854583 22.740375,17.194625 22.040375,17.1985139 C20.6500972,17.2422639 19.4873194,16.1514306 19.4435694,14.762125 C19.441625,14.7028194 19.441625,14.6425417 19.4445417,14.5832361 C19.4007917,13.1667083 20.5149583,11.9825417 21.9324583,11.9397639 C21.9412083,11.9397639 21.9519028,11.9387917 21.9625972,11.9387917 C22.6859306,11.9426806 23.3732917,12.2576806 23.8487083,12.8040694 L23.8487083,10.9860139 C23.2819028,10.675875 22.6470417,10.5125417 22.0014861,10.509625 C19.7624583,10.4882361 17.9298194,12.285875 17.9084306,14.5249028 L17.9084306,14.5832361 Z" id="Fill-31"></path>
                        <polygon id="Fill-32" points="35.7777778 15.8668611 33.7166667 10.6946389 32.0736111 10.6946389 35.35 18.5988056 36.1569444 18.5988056 39.4819444 10.6946389 37.8583333 10.6946389"></polygon>
                        <polygon id="Fill-33" points="40.1623056 18.39425 44.4313333 18.39425 44.4313333 17.0914722 41.66925 17.0914722 41.66925 15.0109167 44.3234167 15.0109167 44.3234167 13.7081389 41.66925 13.7081389 41.66925 11.9970278 44.4313333 11.9970278 44.4313333 10.69425 40.1623056 10.69425"></polygon>
                        <path d="M47.3665694,14.2428611 L46.9290694,14.2428611 L46.9290694,11.9095278 L47.3957361,11.9095278 C48.3679583,11.9095278 48.8453194,12.2984167 48.8453194,13.0470278 C48.8453194,13.7956389 48.3290694,14.2428611 47.3665694,14.2428611 M50.3804583,12.96925 C50.3804583,11.5206389 49.4082361,10.69425 47.6582361,10.69425 L45.4318472,10.69425 L45.4318472,18.4039722 L46.9397639,18.4039722 L46.9397639,15.3025833 L47.1332361,15.3025833 L49.2137917,18.4039722 L51.0610139,18.4039722 L48.6110139,15.1470278 C49.683375,15.0011944 50.4572639,14.0484167 50.3804583,12.96925" id="Fill-34"></path>
                        <path d="M28.4281667,10.4512917 C30.6876111,10.4512917 32.5212222,12.2839306 32.5212222,14.5443472 C32.5212222,16.8047639 30.6876111,18.6374028 28.4281667,18.6374028 C26.16775,18.6374028 24.3351111,16.8047639 24.3351111,14.5443472 C24.3351111,12.2839306 26.16775,10.4512917 28.4281667,10.4512917" id="Fill-35"></path>
                        <path d="M51.1681528,11.1514861 L51.1681528,11.1514861 L51.1681528,10.9764861 C51.2459306,10.9764861 51.2945417,10.9764861 51.2945417,11.0639861 C51.2945417,11.1514861 51.2459306,11.1514861 51.1681528,11.1514861 M51.4500972,11.0542639 C51.4500972,10.9181528 51.3519028,10.8500972 51.1973194,10.8500972 L50.9834306,10.8500972 L50.9834306,11.5306528 L51.1477361,11.5306528 L51.1477361,11.2681528 L51.3334306,11.5306528 L51.527875,11.5306528 L51.3042639,11.2487083 C51.3946806,11.2292639 51.4569028,11.146625 51.4500972,11.0542639" id="Fill-36"></path>
                        <path d="M22.0594306,11.6764861 C21.7920694,11.6871806 21.5655417,11.4781528 21.553875,11.2098194 C21.5441528,10.9414861 21.7531806,10.7159306 22.0205417,10.7042639 C22.288875,10.6945417 22.5154028,10.9035694 22.525125,11.1709306 C22.5260972,11.1777361 22.5260972,11.1835694 22.5260972,11.190375 C22.5260972,11.4499583 22.3190139,11.6609306 22.0594306,11.6667639 L22.0594306,11.6764861 Z M22.0594306,10.5973194 C21.7317917,10.5914861 21.4624861,10.8530139 21.457625,11.1806528 C21.4517917,11.5082917 21.7133194,11.7775972 22.0399861,11.7834306 C22.367625,11.7882917 22.6379028,11.5277361 22.6437361,11.2000972 L22.6437361,11.190375 C22.647625,10.8675972 22.3919306,10.6031528 22.070125,10.5973194 C22.0662361,10.5973194 22.0633194,10.5973194 22.0594306,10.5973194 L22.0594306,10.5973194 Z" id="Fill-37"></path>
                    </g>
                </g>
            </g>
        </g>
    </g>
</svg>