<?xml version="1.0" encoding="UTF-8" standalone="no"?>
<svg width="835px" height="104px" viewBox="0 0 835 104" version="1.1" xmlns="http://www.w3.org/2000/svg" xmlns:xlink="http://www.w3.org/1999/xlink">
    <!-- Generator: sketchtool 46 (44423) - http://www.bohemiancoding.com/sketch -->
    <title>884E0C8C-35AD-47AC-8977-ABDD8E9CB415</title>
    <desc>Created with sketchtool.</desc>
    <defs></defs>
    <g id="Page-1" stroke="none" stroke-width="1" fill="none" fill-rule="evenodd">
        <g id="LP1" transform="translate(-94.000000, -1693.000000)" fill="#C8DCEC">
            <g id="4" transform="translate(94.000000, 1617.000000)">
                <path d="M794.672544,151.947033 L758.967623,145.146314 L681.669972,106.610038 L654.368285,117.375576 L631.684091,104.341998 C631.684091,104.341998 552.017202,140.511623 543.775278,144.741671 L508.564368,122.544123 L488.6174,120.694327 L415.957407,76 L366.354636,108.310217 L333.871258,103.173511 L252.202868,137.998758 L199.116813,108.310217 L156.268891,133.812915 L110.270387,128.28733 L0,177.592545 L64.2718827,159.740657 L59.8610672,172.492006 L113.845407,135.227464 L144.926794,142.738859 L144.926794,153.91374 L165.851517,137.998758 L183.853632,130.324146 L166.851635,179.088704 L201.855747,137.998758 L218.857745,130.324146 L249.861388,142.969769 L251.555317,148.682839 L264.86315,157.893365 L276.86456,172.492006 L265.863268,155.065163 L258.862445,149.934114 L255.862093,140.979956 L336.871611,112.173026 L368.875371,113.122576 L379.168685,109.704365 L397.663865,108.742063 L397.663865,128.28733 L423.27684,104.767043 L448.582319,121.054765 L449.081371,112.173026 L476.357854,126.495341 L499.047089,130.324146 L598.247589,179.088704 L554.940942,151.787216 L628.462935,122.163283 L654.786682,135.227464 L689.024692,136.363185 L724.517894,152.514893 L763.585117,155.065163 L727.461798,180 L784.59068,159.315612 L835,177.73196 L794.672544,151.947033 Z" id="Fill-1"></path>
            </g>
        </g>
    </g>
</svg>