<?xml version="1.0" encoding="UTF-8" standalone="no"?>
<svg width="116px" height="29px" viewBox="0 0 116 29" version="1.1" xmlns="http://www.w3.org/2000/svg" xmlns:xlink="http://www.w3.org/1999/xlink">
    <!-- Generator: sketchtool 46.2 (44496) - http://www.bohemiancoding.com/sketch -->
    <title>FC0FD7A3-C796-47E5-9F5E-3626618FCA6A</title>
    <desc>Created with sketchtool.</desc>
    <defs></defs>
    <g id="Page-1" stroke="none" stroke-width="1" fill="none" fill-rule="evenodd" opacity="0.5">
        <g id="LP_dissertation" transform="translate(-308.000000, -4356.000000)" fill-rule="nonzero" fill="#FFFFFF">
            <g id="9" transform="translate(0.000000, 4021.000000)">
                <g id="Group-6" transform="translate(308.000000, 332.000000)">
                    <g id="pp-white" transform="translate(0.000000, 3.000000)">
                        <g id="Group" transform="translate(34.145199, 5.690867)">
                            <path d="M55.0315648,0.278706539 L48.7075448,0.278706539 C48.2752571,0.278706539 47.9072014,0.601772654 47.839843,1.04040713 L45.2824958,17.6907152 C45.2321901,18.0193262 45.4791711,18.3164187 45.8031738,18.3164187 L49.0480318,18.3164187 C49.3504343,18.3164187 49.6084995,18.090535 49.6553947,17.7832282 L50.3807058,13.0630193 C50.4480643,12.6243848 50.8161199,12.3013187 51.2486919,12.3013187 L53.2498345,12.3013187 C57.4149738,12.3013187 59.818846,10.2313025 60.4472406,6.12891731 C60.7300324,4.33468925 60.4586091,2.92481355 59.6403603,1.93781301 C58.7411109,0.852462619 57.1472453,0.278706539 55.0315648,0.278706539 Z M55.7614234,6.35976221 C55.4158206,8.69068276 53.6824065,8.69068276 52.0052665,8.69068276 L51.0514482,8.69068276 L51.7204852,4.338775 C51.7611276,4.07553594 51.981961,3.88175464 52.2411631,3.88175464 L52.6785667,3.88175464 C53.8199655,3.88175464 54.898269,3.88175464 55.4539051,4.54948298 C55.7867184,4.94930283 55.8870455,5.54144478 55.7614234,6.35976221 Z" id="Shape"></path>
                            <path d="M9.92812312,0.278706539 L3.60438731,0.278706539 C3.17209957,0.278706539 2.80404393,0.601772654 2.73640128,1.04040713 L0.179054093,17.6907152 C0.128748419,18.0193262 0.376013595,18.3164187 0.700016238,18.3164187 L3.71949351,18.3164187 C4.15178125,18.3164187 4.51983688,17.9936444 4.58747954,17.5550099 L5.27754833,13.0630193 C5.34490677,12.6243848 5.71296241,12.3013187 6.14525014,12.3013187 L8.14639279,12.3013187 C12.3118163,12.3013187 14.7156885,10.2313025 15.3440831,6.12891731 C15.6268749,4.33468925 15.3554516,2.92481355 14.537487,1.93781301 C13.6376692,0.852462619 12.0435193,0.278706539 9.92812312,0.278706539 Z M10.6579817,6.35976221 C10.3123789,8.69068276 8.57868053,8.69068276 6.90210895,8.69068276 L5.94800643,8.69068276 L6.61704347,4.338775 C6.65768591,4.07553594 6.87823507,3.88175464 7.1377214,3.88175464 L7.57512497,3.88175464 C8.71652376,3.88175464 9.79482729,3.88175464 10.3504634,4.54948298 C10.6829924,4.94930283 10.7836038,5.54144478 10.6579817,6.35976221 Z" id="Shape"></path>
                            <path d="M28.82913,6.28534318 L25.8014105,6.28534318 C25.5419242,6.28534318 25.3210908,6.47912448 25.2804484,6.74236354 L25.1474368,7.61175284 L24.9356982,7.29685822 C24.279735,6.31948838 22.8183125,5.99292019 21.3588796,5.99292019 C18.0136944,5.99292019 15.15565,8.59612682 14.5994454,12.2470366 C14.3098326,14.0684057 14.7208043,15.8092272 15.7266336,17.0241542 C16.6506096,18.1404396 17.9693572,18.6050477 19.5404858,18.6050477 C22.236813,18.6050477 23.7326252,16.8259953 23.7326252,16.8259953 L23.5973399,17.6904233 C23.5464658,18.0190344 23.793731,18.3164187 24.1180179,18.3164187 L26.8450401,18.3164187 C27.2773278,18.3164187 27.6450993,17.9936444 27.7127419,17.5553017 L29.3498079,6.91104666 C29.4003978,6.58214376 29.1531326,6.28534318 28.82913,6.28534318 Z M24.6091377,12.3375068 C24.3166826,14.1139326 22.943082,15.3066799 21.191194,15.3066799 C20.3129763,15.3066799 19.6098337,15.0165916 19.1579353,14.46735 C18.7100158,13.9230697 18.5414776,13.1473608 18.683584,12.2835165 C18.9561442,10.5228499 20.3519134,9.2915799 22.0770854,9.2915799 C22.9368293,9.2915799 23.6351402,9.58429472 24.0958493,10.1387894 C24.5596846,10.697078 24.741865,11.4777482 24.6091377,12.3375068 Z" id="Shape"></path>
                            <path d="M73.9325717,6.28534318 L70.9048523,6.28534318 C70.6453659,6.28534318 70.4245326,6.47912448 70.3841743,6.74236354 L70.2508785,7.61175284 L70.0391399,7.29685822 C69.3831767,6.31948838 67.9217542,5.99292019 66.4623213,5.99292019 C63.1168519,5.99292019 60.2590917,8.59612682 59.7031714,12.2470366 C59.4135585,14.0684057 59.8245303,15.8092272 60.8303595,17.0241542 C61.7543355,18.1404396 63.0730831,18.6050477 64.6442117,18.6050477 C67.340539,18.6050477 68.8363512,16.8259953 68.8363512,16.8259953 L68.7010659,17.6904233 C68.6501918,18.0190344 68.8974569,18.3164187 69.2217438,18.3164187 L71.948766,18.3164187 C72.3810538,18.3164187 72.7488252,17.9936444 72.8164679,17.5553017 L74.4535339,6.91104666 C74.5041237,6.58214376 74.2565743,6.28534318 73.9325717,6.28534318 Z M69.7128636,12.3375068 C69.4204086,14.1139326 68.0470921,15.3066799 66.2952041,15.3066799 C65.4167022,15.3066799 64.7138439,15.0165916 64.2616612,14.46735 C63.814026,13.9230697 63.6452036,13.1473608 63.78731,12.2835165 C64.0601543,10.5228499 65.4553552,9.2915799 67.1805271,9.2915799 C68.040271,9.2915799 68.738582,9.58429472 69.1995752,10.1387894 C69.6631263,10.697078 69.8453068,11.4777482 69.7128636,12.3375068 Z" id="Shape"></path>
                            <path d="M44.9570721,6.28534318 L41.9134367,6.28534318 C41.6224028,6.28534318 41.3501269,6.43388939 41.1864203,6.68107728 L36.9880281,13.0303333 L35.2085715,6.92884886 C35.0971601,6.54712304 34.7549678,6.28505134 34.3670173,6.28505134 L31.3751087,6.28505134 C31.0138741,6.28505134 30.7597878,6.64985048 30.8760309,7.001225 L34.2274688,17.1023671 L31.0752641,21.6690686 C30.8277147,22.0277391 31.0775378,22.5235741 31.5055623,22.5235741 L34.5460714,22.5235741 C34.8342632,22.5235741 35.1039812,22.37853 35.2682562,22.135136 L45.3902125,7.13488741 C45.6323618,6.7762169 45.3822545,6.28534318 44.9570721,6.28534318 Z" id="Shape"></path>
                            <path d="M77.5020008,0.736018735 L74.9062849,17.691007 C74.8559792,18.0193262 75.1032444,18.3164187 75.4269628,18.3164187 L78.0374578,18.3164187 C78.4697456,18.3164187 78.8378012,17.9936444 78.9054439,17.5550099 L81.4644963,0.904701856 C81.5150862,0.576090794 81.267821,0.278998379 80.9438184,0.278998379 L78.022963,0.278998379 C77.7631924,0.278706539 77.5423591,0.472779679 77.5020008,0.736018735 Z" id="Shape"></path>
                        </g>
                        <g id="Group">
                            <path d="M22.0126556,7.16934213 C22.3643602,4.97404726 22.010307,3.48062593 20.7975427,2.12746434 C19.462357,0.638066851 17.0503329,0 13.9642573,0 L5.00606557,0 C4.37546337,0 3.83821847,0.449233553 3.74016393,1.05942091 L0.00968802275,24.2172238 C-0.063706089,24.6742176 0.297099364,25.0872365 0.769170291,25.0872365 L6.2995634,25.0872365 L5.91791402,27.4569938 C5.85362078,27.8567916 6.16892188,28.2180754 6.58227752,28.2180754 L11.2439779,28.2180754 C11.7956081,28.2180754 12.2653304,27.8251756 12.3513483,27.2914413 L12.3971462,27.059208 L13.2752334,21.6074729 L13.3318936,21.3062593 C13.4179115,20.7728124 13.8876338,20.3793379 14.439264,20.3793379 L15.136508,20.3793379 C19.6525945,20.3793379 23.1887228,18.5832659 24.2218183,13.388482 C24.6536693,11.217905 24.4302576,9.40602512 23.2885388,8.13219076 C22.9435865,7.74762614 22.5137906,7.42916755 22.0126556,7.16934213 L22.0126556,7.16934213" id="Shape" opacity="0.68"></path>
                            <path d="M22.0126556,7.16934213 C22.3643602,4.97404726 22.010307,3.48062593 20.7975427,2.12746434 C19.462357,0.638066851 17.0503329,0 13.9642573,0 L5.00606557,0 C4.37546337,0 3.83821847,0.449233553 3.74016393,1.05942091 L0.00968802275,24.2172238 C-0.063706089,24.6742176 0.297099364,25.0872365 0.769170291,25.0872365 L6.2995634,25.0872365 L7.68876715,16.4626996 L7.64561141,16.7331595 C7.74395952,16.1232595 8.27621362,15.6737386 8.9071094,15.6737386 L11.5357929,15.6737386 C16.6980412,15.6737386 20.7402952,13.6204279 21.9210597,7.68238237 C21.9562889,7.5070577 21.9859401,7.33661912 22.0126556,7.16934213" id="Shape" opacity="0.7"></path>
                            <path d="M9.1813098,7.1983713 C9.24031867,6.83162657 9.48105135,6.53098786 9.80486618,6.37923142 C9.95194798,6.31025122 10.1166444,6.27173728 10.2889737,6.27173728 L17.3110288,6.27173728 C18.1430244,6.27173728 18.9186534,6.32519693 19.6276405,6.43700234 C19.8302083,6.46890568 20.0274916,6.50569512 20.2191971,6.54737066 C20.4106089,6.5890462 20.5967364,6.63532042 20.7766987,6.68705557 C20.8668267,6.71263572 20.9551932,6.73994039 21.0423854,6.7681073 C21.3905671,6.8813498 21.7149691,7.01471152 22.0132427,7.16962955 C22.3649473,4.97433468 22.0108941,3.48091335 20.7981298,2.12775176 C19.462357,0.638066851 17.0503329,0 13.9642573,0 L5.00606557,0 C4.37546337,0 3.83821847,0.449233553 3.74016393,1.05942091 L0.00968802275,24.2172238 C-0.063706089,24.6742176 0.297099364,25.0872365 0.769170291,25.0872365 L6.2995634,25.0872365 L7.68876715,16.4626996 L9.1813098,7.1983713 Z" id="Shape"></path>
                        </g>
                    </g>
                </g>
            </g>
        </g>
    </g>
</svg>