<svg xmlns="http://www.w3.org/2000/svg" viewBox="0 0 295 280" enable-background="new 0 0 295 280"><style type="text/css">.st0{fill:#FFFFFF;}</style><title>Mask</title><path class="st0" d="M0 0v280h295v-280h-295zm265 55h20v20h-20v-20zm-70 136v-8h90v8h-90zm55 4v8h-55v-8h55zm-55-31v-8h55v8h-55zm0-12v-8h90v8h-90zm0-27v-8h55v8h-55zm0-12v-8h90v8h-90zm-114-103h115v20h-115v-20zm88 115v-20h20v20h-20zm20 19v20h-20v-20h20zm-108-109h95v10h-95v-10zm0 20h95v20h-95v-20zm-45 97v-8h90v8h-90zm55 4v8h-55v-8h55zm-55-31v-8h55v8h-55zm0-12v-8h90v8h-90zm-26-101c0-1.1.9-2 2-2h57c1.1 0 2 .9 2 2v70c0 1.1-.9 2-2 2h-57c-1.1 0-2-.9-2-2v-70zm0 93h20v20h-20v-20zm0 39h20v20h-20v-20zm112 59h-112v-20h112l11 10.2-11 9.8zm47-20h20v20h-20v-20zm116 82c0 1.1-.9 2-2 2h-111c-1.1 0-2-.9-2-2v-33c0-1.1.9-2 2-2h111c1.1 0 2 .9 2 2v33z"/></svg>